SplineFontDB: 3.2
FontName: PMDG_NG3_DU_C
FullName: PMDG_NG3_DU_C
FamilyName: PMDG_NG3_DU_C
Weight: Book
Copyright: Copyright (c) 2009-2019 Precision Manuals Development Group. All rights reserved. Modified by Oudoum.
Version: 001.000
ItalicAngle: 0
UnderlinePosition: -125
UnderlineWidth: 62
Ascent: 800
Descent: 200
InvalidEm: 0
sfntRevision: 0x00010000
LayerCount: 2
Layer: 0 1 "Hinten" 1
Layer: 1 1 "Vorne" 0
XUID: [1021 29 -729883645 28183]
StyleMap: 0x0040
FSType: 0
OS2Version: 2
OS2_WeightWidthSlopeOnly: 0
OS2_UseTypoMetrics: 0
CreationTime: 1395059437
ModificationTime: 1666536283
PfmFamily: 81
TTFWeight: 400
TTFWidth: 5
LineGap: 57
VLineGap: 0
Panose: 0 0 0 0 0 0 0 0 0 0
OS2TypoAscent: 875
OS2TypoAOffset: 0
OS2TypoDescent: 0
OS2TypoDOffset: 0
OS2TypoLinegap: 57
OS2WinAscent: 875
OS2WinAOffset: 0
OS2WinDescent: 118
OS2WinDOffset: 0
HheadAscent: 875
HheadAOffset: 0
HheadDescent: 0
HheadDOffset: 0
OS2SubXSize: 700
OS2SubYSize: 650
OS2SubXOff: 0
OS2SubYOff: 140
OS2SupXSize: 700
OS2SupYSize: 650
OS2SupXOff: 0
OS2SupYOff: 477
OS2StrikeYSize: 50
OS2StrikeYPos: 250
OS2CapHeight: 875
OS2XHeight: 625
OS2Vendor: 'pyrs'
OS2CodePages: 00000001.00000000
OS2UnicodeRanges: 80000003.00000000.00000000.00000000
MarkAttachClasses: 1
DEI: 91125
TtTable: prep
PUSHW_1
 0
CALL
EndTTInstrs
TtTable: fpgm
PUSHW_1
 0
FDEF
MPPEM
PUSHW_1
 9
LT
IF
PUSHB_2
 1
 1
INSTCTRL
EIF
PUSHW_1
 511
SCANCTRL
PUSHW_1
 68
SCVTCI
PUSHW_2
 9
 3
SDS
SDB
ENDF
PUSHW_1
 1
FDEF
DUP
DUP
RCVT
ROUND[Black]
WCVTP
PUSHB_1
 1
ADD
ENDF
PUSHW_1
 2
FDEF
PUSHW_1
 1
LOOPCALL
POP
ENDF
PUSHW_1
 3
FDEF
DUP
GC[cur]
PUSHB_1
 3
CINDEX
GC[cur]
GT
IF
SWAP
EIF
DUP
ROLL
DUP
ROLL
MD[grid]
ABS
ROLL
DUP
GC[cur]
DUP
ROUND[Grey]
SUB
ABS
PUSHB_1
 4
CINDEX
GC[cur]
DUP
ROUND[Grey]
SUB
ABS
GT
IF
SWAP
NEG
ROLL
EIF
MDAP[rnd]
DUP
PUSHB_1
 0
GTEQ
IF
ROUND[Black]
DUP
PUSHB_1
 0
EQ
IF
POP
PUSHB_1
 64
EIF
ELSE
ROUND[Black]
DUP
PUSHB_1
 0
EQ
IF
POP
PUSHB_1
 64
NEG
EIF
EIF
MSIRP[no-rp0]
ENDF
PUSHW_1
 4
FDEF
DUP
GC[cur]
PUSHB_1
 4
CINDEX
GC[cur]
GT
IF

StartChar: exclam
Encoding: 33 33 4
Width: 335
GlyphClass: 2
Flags: W
LayerCount: 2
Fore
SplineSet
137 493 m 1,0,1
 141 509 141 509 150 517 c 128,-1,2
 159 525 159 525 170 525 c 256,3,4
 181 525 181 525 189.5 517.5 c 128,-1,5
 198 510 198 510 203 496 c 1,6,-1
 203 189 l 2,7,8
 202 170 202 170 192 161 c 128,-1,9
 182 152 182 152 170 152 c 0,10,11
 159 152 159 152 149 160.5 c 128,-1,12
 139 169 139 169 137 186 c 2,13,-1
 137 493 l 1,14,-1
 137 493 l 1,0,1
124 47 m 256,15,16
 124 67 124 67 137.5 80.5 c 128,-1,17
 151 94 151 94 170 94 c 0,18,19
 190 94 190 94 203.5 80.5 c 128,-1,20
 217 67 217 67 217 47 c 256,21,22
 217 27 217 27 203.5 13.5 c 128,-1,23
 190 0 190 0 170 0 c 0,24,25
 151 0 151 0 137.5 13.5 c 128,-1,26
 124 27 124 27 124 47 c 256,15,16
EndSplineSet
EndChar

StartChar: quotedbl
Encoding: 34 34 5
Width: 335
GlyphClass: 2
Flags: W
LayerCount: 2
Fore
SplineSet
72 494 m 1,0,1
 75 510 75 510 84.5 518 c 128,-1,2
 94 526 94 526 105 526 c 0,3,4
 115 526 115 526 124 518.5 c 128,-1,5
 133 511 133 511 138 497 c 1,6,-1
 138 374 l 2,7,8
 137 356 137 356 127 346.5 c 128,-1,9
 117 337 117 337 105 337 c 0,10,11
 94 337 94 337 84 345.5 c 128,-1,12
 74 354 74 354 72 371 c 2,13,-1
 72 494 l 1,14,-1
 72 494 l 1,0,1
188 494 m 1,15,16
 191 510 191 510 200.5 518 c 128,-1,17
 210 526 210 526 221 526 c 0,18,19
 231 526 231 526 240 518.5 c 128,-1,20
 249 511 249 511 254 497 c 1,21,-1
 254 374 l 2,22,23
 253 356 253 356 242.5 346.5 c 128,-1,24
 232 337 232 337 221 337 c 256,25,26
 210 337 210 337 200 345.5 c 128,-1,27
 190 354 190 354 188 371 c 2,28,-1
 188 494 l 1,29,-1
 188 494 l 1,15,16
EndSplineSet
EndChar

StartChar: numbersign
Encoding: 35 35 6
Width: 335
GlyphClass: 2
Flags: W
LayerCount: 2
Fore
SplineSet
46 325 m 1,0,1
 29 327 29 327 20.5 337 c 128,-1,2
 12 347 12 347 12 358 c 256,3,4
 12 369 12 369 21.5 379 c 128,-1,5
 31 389 31 389 49 391 c 2,6,-1
 72 391 l 1,7,-1
 72 493 l 2,8,9
 75 509 75 509 84.5 517 c 128,-1,10
 94 525 94 525 105 525 c 0,11,12
 115 525 115 525 124 517.5 c 128,-1,13
 133 510 133 510 138 496 c 1,14,-1
 138 391 l 1,15,-1
 200 391 l 1,16,-1
 200 493 l 2,17,18
 203 509 203 509 212.5 517 c 128,-1,19
 222 525 222 525 233 525 c 0,20,21
 243 525 243 525 252 517.5 c 128,-1,22
 261 510 261 510 266 496 c 1,23,-1
 266 391 l 1,24,-1
 295 391 l 1,25,26
 309 386 309 386 316.5 377 c 128,-1,27
 324 368 324 368 324 358 c 0,28,29
 324 347 324 347 316 337.5 c 128,-1,30
 308 328 308 328 292 325 c 2,31,-1
 266 325 l 1,32,-1
 266 200 l 1,33,-1
 295 200 l 1,34,35
 309 195 309 195 316.5 186.5 c 128,-1,36
 324 178 324 178 324 167 c 256,37,38
 324 156 324 156 316 147 c 128,-1,39
 308 138 308 138 292 134 c 1,40,-1
 266 134 l 1,41,-1
 266 37 l 2,42,43
 265 19 265 19 254.5 9.5 c 128,-1,44
 244 0 244 0 233 0 c 256,45,46
 222 0 222 0 212 8.5 c 128,-1,47
 202 17 202 17 200 34 c 2,48,-1
 200 134 l 1,49,-1
 138 134 l 1,50,-1
 138 37 l 2,51,52
 137 19 137 19 127 9.5 c 128,-1,53
 117 0 117 0 105 0 c 0,54,55
 94 0 94 0 84 8.5 c 128,-1,56
 74 17 74 17 72 34 c 2,57,-1
 72 134 l 1,58,-1
 46 134 l 2,59,60
 29 136 29 136 20.5 146 c 128,-1,61
 12 156 12 156 12 167 c 256,62,63
 12 178 12 178 21.5 189 c 128,-1,64
 31 200 31 200 49 200 c 2,65,-1
 72 200 l 1,66,-1
 72 325 l 1,67,-1
 46 325 l 1,68,-1
 46 325 l 1,0,1
138 200 m 1,69,-1
 200 200 l 1,70,-1
 200 325 l 1,71,-1
 138 325 l 1,72,-1
 138 200 l 1,69,-1
EndSplineSet
EndChar

StartChar: dollar
Encoding: 36 36 7
Width: 335
GlyphClass: 2
Flags: W
LayerCount: 2
Fore
SplineSet
136 492 m 1,0,1
 140 509 140 509 149.5 518 c 128,-1,2
 159 527 159 527 170 527 c 0,3,4
 193 527 193 527 204 497 c 1,5,-1
 204 475 l 1,6,7
 226 470 226 470 246.5 458.5 c 128,-1,8
 267 447 267 447 283 427 c 2,9,-1
 285 425 l 2,10,11
 292 417 292 417 292 406 c 256,12,13
 292 395 292 395 284 388.5 c 128,-1,14
 276 382 276 382 265 382 c 0,15,16
 251 382 251 382 238 394 c 2,17,-1
 232 400 l 2,18,19
 227 406 227 406 218.5 410 c 128,-1,20
 210 414 210 414 204 421 c 1,21,-1
 204 302 l 1,22,23
 228 298 228 298 248 286 c 128,-1,24
 268 274 268 274 282 257 c 128,-1,25
 296 240 296 240 303.5 219.5 c 128,-1,26
 311 199 311 199 311 178 c 0,27,28
 311 131 311 131 281 96 c 128,-1,29
 251 61 251 61 204 51 c 1,30,-1
 204 40 l 2,31,32
 204 20 204 20 192.5 9.5 c 128,-1,33
 181 -1 181 -1 170 -1 c 256,34,35
 159 -1 159 -1 148.5 8 c 128,-1,36
 138 17 138 17 136 36 c 2,37,-1
 136 54 l 1,38,39
 111 59 111 59 92.5 71.5 c 128,-1,40
 74 84 74 84 58 101 c 1,41,-1
 57 103 l 2,42,43
 54 108 54 108 53 112.5 c 128,-1,44
 52 117 52 117 52 121 c 0,45,46
 52 131 52 131 60 138 c 128,-1,47
 68 145 68 145 79 145 c 256,48,49
 90 145 90 145 105 136 c 1,50,-1
 109 132 l 2,51,52
 113 127 113 127 120 121 c 128,-1,53
 127 115 127 115 136 110 c 1,54,-1
 136 257 l 1,55,56
 116 261 116 261 97.5 271.5 c 128,-1,57
 79 282 79 282 65 296 c 128,-1,58
 51 310 51 310 42.5 328 c 128,-1,59
 34 346 34 346 34 365 c 256,60,61
 34 384 34 384 43 401.5 c 128,-1,62
 52 419 52 419 66 433 c 128,-1,63
 80 447 80 447 98.5 457 c 128,-1,64
 117 467 117 467 136 473 c 1,65,-1
 136 492 l 1,0,1
206 109 m 0,66,67
 228 120 228 120 239 137.5 c 128,-1,68
 250 155 250 155 250 176 c 0,69,70
 250 204 250 204 235.5 221 c 128,-1,71
 221 238 221 238 204 245 c 1,72,-1
 204 107 l 1,73,74
 204 107 204 107 206 109 c 0,66,67
94 362 m 0,75,76
 94 342 94 342 106 331 c 128,-1,77
 118 320 118 320 136 314 c 1,78,-1
 136 416 l 1,79,80
 119 408 119 408 106.5 394 c 128,-1,81
 94 380 94 380 94 362 c 0,75,76
EndSplineSet
EndChar

StartChar: percent
Encoding: 37 37 8
Width: 335
GlyphClass: 2
Flags: W
LayerCount: 2
Fore
SplineSet
241 185 m 0,0,1
 257 185 257 185 271 178 c 128,-1,2
 285 171 285 171 295.5 158 c 128,-1,3
 306 145 306 145 312.5 128 c 128,-1,4
 319 111 319 111 319 92 c 0,5,6
 319 72 319 72 312.5 55.5 c 128,-1,7
 306 39 306 39 295.5 26 c 128,-1,8
 285 13 285 13 271 6 c 128,-1,9
 257 -1 257 -1 241 -1 c 0,10,11
 208 -1 208 -1 185.5 26 c 128,-1,12
 163 53 163 53 163 92 c 256,13,14
 163 131 163 131 185.5 158 c 128,-1,15
 208 185 208 185 241 185 c 0,0,1
241 125 m 0,16,17
 233 125 233 125 226.5 116 c 128,-1,18
 220 107 220 107 220 92 c 0,19,20
 220 78 220 78 226.5 68.5 c 128,-1,21
 233 59 233 59 241 59 c 0,22,23
 248 59 248 59 254 68.5 c 128,-1,24
 260 78 260 78 260 92 c 0,25,26
 260 107 260 107 254 116 c 128,-1,27
 248 125 248 125 241 125 c 0,16,17
94 526 m 0,28,29
 126 526 126 526 149 499 c 128,-1,30
 172 472 172 472 172 433 c 256,31,32
 172 394 172 394 149 367 c 128,-1,33
 126 340 126 340 94 340 c 0,34,35
 61 340 61 340 38.5 367 c 128,-1,36
 16 394 16 394 16 433 c 256,37,38
 16 472 16 472 38.5 499 c 128,-1,39
 61 526 61 526 94 526 c 0,28,29
94 466 m 256,40,41
 86 466 86 466 79.5 456.5 c 128,-1,42
 73 447 73 447 73 433 c 256,43,44
 73 419 73 419 79.5 409.5 c 128,-1,45
 86 400 86 400 94 400 c 256,46,47
 102 400 102 400 108 409.5 c 128,-1,48
 114 419 114 419 114 433 c 256,49,50
 114 447 114 447 108 456.5 c 128,-1,51
 102 466 102 466 94 466 c 256,40,41
73 16 m 0,52,53
 135 131 135 131 196.5 245.5 c 128,-1,54
 258 360 258 360 319 475 c 0,55,56
 323 483 323 483 323 493 c 0,57,58
 323 507 323 507 313.5 515.5 c 128,-1,59
 304 524 304 524 292 524 c 0,60,61
 284 524 284 524 274.5 519.5 c 128,-1,62
 265 515 265 515 260 504 c 0,63,64
 198 389 198 389 137.5 274.5 c 128,-1,65
 77 160 77 160 14 45 c 0,66,67
 14 42 14 42 13.5 39.5 c 128,-1,68
 13 37 13 37 13 34 c 0,69,70
 13 19 13 19 22 10 c 128,-1,71
 31 1 31 1 43 1 c 0,72,73
 51 1 51 1 58.5 4.5 c 128,-1,74
 66 8 66 8 73 16 c 0,52,53
EndSplineSet
EndChar

StartChar: ampersand
Encoding: 38 38 9
Width: 335
GlyphClass: 2
Flags: W
LayerCount: 2
Fore
SplineSet
46 412 m 0,0,1
 46 434 46 434 53.5 455 c 128,-1,2
 61 476 61 476 74 491.5 c 128,-1,3
 87 507 87 507 104 516.5 c 128,-1,4
 121 526 121 526 140 526 c 0,5,6
 185 526 185 526 210 498.5 c 128,-1,7
 235 471 235 471 235 424 c 0,8,9
 235 407 235 407 232.5 392.5 c 128,-1,10
 230 378 230 378 223.5 363 c 128,-1,11
 217 348 217 348 204 330.5 c 128,-1,12
 191 313 191 313 170 289 c 1,13,14
 177 276 177 276 183.5 266 c 128,-1,15
 190 256 190 256 196.5 245 c 128,-1,16
 203 234 203 234 211 220.5 c 128,-1,17
 219 207 219 207 230 189 c 1,18,-1
 235 240 l 1,19,-1
 235 258 l 2,20,21
 235 280 235 280 246 290 c 128,-1,22
 257 300 257 300 269 300 c 0,23,24
 288 300 288 300 296 287 c 128,-1,25
 304 274 304 274 304 245 c 0,26,27
 304 229 304 229 303.5 216 c 128,-1,28
 303 203 303 203 300.5 188 c 128,-1,29
 298 173 298 173 293.5 153 c 128,-1,30
 289 133 289 133 281 105 c 1,31,32
 290 91 290 91 299.5 75.5 c 128,-1,33
 309 60 309 60 317 47 c 1,34,-1
 317 48 l 1,35,36
 321 41 321 41 321 31 c 0,37,38
 321 16 321 16 312 7.5 c 128,-1,39
 303 -1 303 -1 289 -1 c 0,40,41
 278 -1 278 -1 263 7 c 1,42,-1
 241 42 l 1,43,44
 217 25 217 25 188.5 14.5 c 128,-1,45
 160 4 160 4 138 4 c 0,46,47
 84 4 84 4 49.5 41 c 128,-1,48
 15 78 15 78 15 139 c 0,49,50
 15 155 15 155 17 171 c 128,-1,51
 19 187 19 187 26 204 c 128,-1,52
 33 221 33 221 47.5 241.5 c 128,-1,53
 62 262 62 262 88 289 c 1,54,55
 62 333 62 333 54 358 c 1,56,-1
 54 357 l 1,57,58
 46 384 46 384 46 412 c 0,0,1
139 70 m 0,59,60
 147 70 147 70 156.5 72.5 c 128,-1,61
 166 75 166 75 177 80 c 1,62,-1
 176 80 l 1,63,64
 187 84 187 84 204 102 c 1,65,66
 185 134 185 134 165.5 164.5 c 128,-1,67
 146 195 146 195 122 233 c 1,68,69
 104 208 104 208 94.5 185 c 128,-1,70
 85 162 85 162 85 145 c 0,71,72
 85 112 85 112 99 91 c 128,-1,73
 113 70 113 70 139 70 c 0,59,60
116 415 m 0,74,75
 116 399 116 399 135 344 c 1,76,77
 145 362 145 362 151.5 373 c 128,-1,78
 158 384 158 384 161 391 c 128,-1,79
 164 398 164 398 165 402 c 128,-1,80
 166 406 166 406 166 411 c 0,81,82
 166 432 166 432 161 446.5 c 128,-1,83
 156 461 156 461 142 461 c 0,84,85
 131 461 131 461 123.5 449.5 c 128,-1,86
 116 438 116 438 116 415 c 0,74,75
EndSplineSet
EndChar

StartChar: quotesingle
Encoding: 39 39 10
Width: 335
GlyphClass: 2
Flags: W
LayerCount: 2
Fore
SplineSet
134 494 m 1,0,1
 138 510 138 510 147 518 c 128,-1,2
 156 526 156 526 167 526 c 256,3,4
 178 526 178 526 186.5 518.5 c 128,-1,5
 195 511 195 511 200 497 c 1,6,-1
 200 374 l 2,7,8
 199 356 199 356 189 346.5 c 128,-1,9
 179 337 179 337 167 337 c 0,10,11
 156 337 156 337 146 345.5 c 128,-1,12
 136 354 136 354 134 371 c 2,13,-1
 134 494 l 1,14,-1
 134 494 l 1,0,1
EndSplineSet
EndChar

StartChar: parenleft
Encoding: 40 40 11
Width: 335
GlyphClass: 2
Flags: W
LayerCount: 2
Fore
SplineSet
238 467 m 1,0,1
 221 458 221 458 208 437 c 128,-1,2
 195 416 195 416 186.5 388.5 c 128,-1,3
 178 361 178 361 174 328 c 128,-1,4
 170 295 170 295 170 262 c 0,5,6
 170 208 170 208 180.5 161.5 c 128,-1,7
 191 115 191 115 212 85 c 1,8,-1
 211 85 l 1,9,10
 217 77 217 77 224 70.5 c 128,-1,11
 231 64 231 64 237 58 c 128,-1,12
 243 52 243 52 247 45.5 c 128,-1,13
 251 39 251 39 251 31 c 0,14,15
 251 18 251 18 243 8.5 c 128,-1,16
 235 -1 235 -1 221 -1 c 0,17,18
 218 -1 218 -1 213 0 c 128,-1,19
 208 1 208 1 203 3 c 1,20,-1
 204 2 l 1,21,22
 177 17 177 17 157.5 43.5 c 128,-1,23
 138 70 138 70 125.5 104.5 c 128,-1,24
 113 139 113 139 106.5 180 c 128,-1,25
 100 221 100 221 100 265 c 0,26,27
 100 310 100 310 109 356.5 c 128,-1,28
 118 403 118 403 134 441 c 128,-1,29
 150 479 150 479 171.5 503 c 128,-1,30
 193 527 193 527 218 527 c 0,31,32
 233 527 233 527 243 518 c 128,-1,33
 253 509 253 509 253 496 c 256,34,35
 253 483 253 483 239 469 c 1,36,-1
 238 467 l 1,0,1
EndSplineSet
EndChar

StartChar: parenright
Encoding: 41 41 12
Width: 335
GlyphClass: 2
Flags: W
LayerCount: 2
Fore
SplineSet
113 469 m 2,0,1
 100 482 100 482 100 496 c 0,2,3
 100 509 100 509 110 518 c 128,-1,4
 120 527 120 527 134 527 c 0,5,6
 151 527 151 527 169 511.5 c 128,-1,7
 187 496 187 496 201 475 c 1,8,-1
 200 475 l 1,9,10
 226 434 226 434 239.5 379.5 c 128,-1,11
 253 325 253 325 253 265 c 0,12,13
 253 221 253 221 246.5 180 c 128,-1,14
 240 139 240 139 227.5 104.5 c 128,-1,15
 215 70 215 70 195.5 43.5 c 128,-1,16
 176 17 176 17 149 2 c 1,17,-1
 149 3 l 1,18,19
 141 -1 141 -1 131 -1 c 0,20,21
 117 -1 117 -1 109.5 8.5 c 128,-1,22
 102 18 102 18 102 31 c 0,23,24
 102 47 102 47 116 57.5 c 128,-1,25
 130 68 130 68 142 85 c 1,26,-1
 141 85 l 1,27,28
 162 115 162 115 172.5 161.5 c 128,-1,29
 183 208 183 208 183 262 c 0,30,31
 183 295 183 295 179 328 c 128,-1,32
 175 361 175 361 166.5 388.5 c 128,-1,33
 158 416 158 416 145 437 c 128,-1,34
 132 458 132 458 115 467 c 1,35,-1
 113 469 l 2,0,1
EndSplineSet
EndChar

StartChar: asterisk
Encoding: 42 42 13
Width: 335
GlyphClass: 2
Flags: W
LayerCount: 2
Fore
SplineSet
79 361 m 2,0,1
 74 373 74 373 74 382 c 0,2,3
 74 396 74 396 83 404.5 c 128,-1,4
 92 413 92 413 104 413 c 0,5,6
 115 413 115 413 124 405.5 c 128,-1,7
 133 398 133 398 140.5 386.5 c 128,-1,8
 148 375 148 375 155 362 c 128,-1,9
 162 349 162 349 168 338 c 1,10,11
 174 349 174 349 181 362 c 128,-1,12
 188 375 188 375 195.5 386.5 c 128,-1,13
 203 398 203 398 211.5 405.5 c 128,-1,14
 220 413 220 413 231 413 c 0,15,16
 243 413 243 413 252.5 404 c 128,-1,17
 262 395 262 395 262 381 c 0,18,19
 262 373 262 373 258 363.5 c 128,-1,20
 254 354 254 354 248.5 344 c 128,-1,21
 243 334 243 334 236.5 324.5 c 128,-1,22
 230 315 230 315 225 307 c 1,23,-1
 295 307 l 1,24,25
 309 302 309 302 316.5 293 c 128,-1,26
 324 284 324 284 324 274 c 0,27,28
 324 263 324 263 316 253.5 c 128,-1,29
 308 244 308 244 292 241 c 2,30,-1
 225 241 l 1,31,-1
 259 181 l 2,32,33
 260 177 260 177 261 173.5 c 128,-1,34
 262 170 262 170 262 167 c 0,35,36
 262 152 262 152 253 143 c 128,-1,37
 244 134 244 134 232 134 c 256,38,39
 220 134 220 134 211 141.5 c 128,-1,40
 202 149 202 149 194.5 160 c 128,-1,41
 187 171 187 171 180.5 184 c 128,-1,42
 174 197 174 197 168 208 c 1,43,44
 162 197 162 197 155 184 c 128,-1,45
 148 171 148 171 140.5 160 c 128,-1,46
 133 149 133 149 124 141.5 c 128,-1,47
 115 134 115 134 104 134 c 0,48,49
 92 134 92 134 83 143.5 c 128,-1,50
 74 153 74 153 74 168 c 0,51,52
 74 175 74 175 78 184.5 c 128,-1,53
 82 194 82 194 88 203.5 c 128,-1,54
 94 213 94 213 100 223 c 128,-1,55
 106 233 106 233 111 241 c 1,56,-1
 46 241 l 2,57,58
 29 243 29 243 20.5 253 c 128,-1,59
 12 263 12 263 12 274 c 256,60,61
 12 285 12 285 21.5 295 c 128,-1,62
 31 305 31 305 49 307 c 2,63,-1
 110 307 l 1,64,-1
 79 361 l 2,0,1
EndSplineSet
EndChar

StartChar: plus
Encoding: 43 43 14
Width: 335
GlyphClass: 2
Flags: W
LayerCount: 2
Fore
SplineSet
46 242 m 1,0,1
 29 244 29 244 20.5 254 c 128,-1,2
 12 264 12 264 12 275 c 256,3,4
 12 286 12 286 21.5 297 c 128,-1,5
 31 308 31 308 49 308 c 2,6,-1
 135 308 l 1,7,-1
 135 397 l 2,8,9
 137 414 137 414 147 422.5 c 128,-1,10
 157 431 157 431 168 431 c 0,11,12
 180 431 180 431 190.5 421.5 c 128,-1,13
 201 412 201 412 201 394 c 2,14,-1
 201 308 l 1,15,-1
 295 308 l 1,16,17
 309 303 309 303 316.5 294 c 128,-1,18
 324 285 324 285 324 275 c 0,19,20
 324 264 324 264 316 254.5 c 128,-1,21
 308 245 308 245 292 242 c 2,22,-1
 201 242 l 1,23,-1
 201 148 l 1,24,25
 196 133 196 133 187 126 c 128,-1,26
 178 119 178 119 168 119 c 0,27,28
 157 119 157 119 147.5 127 c 128,-1,29
 138 135 138 135 135 151 c 2,30,-1
 135 242 l 1,31,-1
 46 242 l 1,32,-1
 46 242 l 1,0,1
EndSplineSet
EndChar

StartChar: comma
Encoding: 44 44 15
Width: 335
GlyphClass: 2
Flags: W
LayerCount: 2
Fore
SplineSet
157 -43 m 0,0,1
 144 -59 144 -59 127 -59 c 0,2,3
 115 -59 115 -59 106 -49.5 c 128,-1,4
 97 -40 97 -40 97 -24 c 0,5,6
 97 -18 97 -18 98 -14 c 0,7,8
 109 6 109 6 120.5 25.5 c 128,-1,9
 132 45 132 45 144 65 c 0,10,11
 157 85 157 85 176 85 c 0,12,13
 188 85 188 85 197 76.5 c 128,-1,14
 206 68 206 68 206 53 c 0,15,16
 206 45 206 45 203 36 c 0,17,18
 192 16 192 16 180.5 -3.5 c 128,-1,19
 169 -23 169 -23 157 -43 c 0,0,1
EndSplineSet
EndChar

StartChar: hyphen
Encoding: 45 45 16
Width: 335
GlyphClass: 2
Flags: W
LayerCount: 2
Fore
SplineSet
46 242 m 1,0,1
 29 244 29 244 20.5 254 c 128,-1,2
 12 264 12 264 12 275 c 256,3,4
 12 286 12 286 21.5 297 c 128,-1,5
 31 308 31 308 49 308 c 2,6,-1
 295 308 l 1,7,8
 309 303 309 303 316.5 294 c 128,-1,9
 324 285 324 285 324 275 c 0,10,11
 324 264 324 264 316 254.5 c 128,-1,12
 308 245 308 245 292 242 c 2,13,-1
 46 242 l 1,14,-1
 46 242 l 1,0,1
EndSplineSet
EndChar

StartChar: period
Encoding: 46 46 17
Width: 335
GlyphClass: 2
Flags: W
LayerCount: 2
Fore
SplineSet
124 47 m 256,0,1
 124 67 124 67 137.5 80.5 c 128,-1,2
 151 94 151 94 170 94 c 0,3,4
 190 94 190 94 203.5 80.5 c 128,-1,5
 217 67 217 67 217 47 c 256,6,7
 217 27 217 27 203.5 13.5 c 128,-1,8
 190 0 190 0 170 0 c 0,9,10
 151 0 151 0 137.5 13.5 c 128,-1,11
 124 27 124 27 124 47 c 256,0,1
EndSplineSet
EndChar

StartChar: slash
Encoding: 47 47 18
Width: 335
GlyphClass: 2
Flags: W
LayerCount: 2
Fore
SplineSet
73 16 m 0,0,1
 66 8 66 8 58.5 4.5 c 128,-1,2
 51 1 51 1 43 1 c 0,3,4
 31 1 31 1 22 10 c 128,-1,5
 13 19 13 19 13 34 c 2,6,-1
 14 45 l 1,7,8
 77 160 77 160 137.5 274.5 c 128,-1,9
 198 389 198 389 260 504 c 0,10,11
 265 515 265 515 274.5 519.5 c 128,-1,12
 284 524 284 524 292 524 c 0,13,14
 304 524 304 524 313.5 515.5 c 128,-1,15
 323 507 323 507 323 493 c 0,16,17
 323 483 323 483 319 475 c 0,18,19
 258 360 258 360 196.5 245.5 c 128,-1,20
 135 131 135 131 73 16 c 0,0,1
EndSplineSet
EndChar

StartChar: zero
Encoding: 48 48 19
Width: 335
GlyphClass: 2
Flags: W
LayerCount: 2
Fore
SplineSet
321 163 m 2,0,1
 321 127 321 127 312 95.5 c 128,-1,2
 303 64 303 64 284 40.5 c 128,-1,3
 265 17 265 17 236 3.5 c 128,-1,4
 207 -10 207 -10 167 -10 c 0,5,6
 146 -10 146 -10 128 -6 c 128,-1,7
 110 -2 110 -2 94 6 c 1,8,9
 81 -7 81 -7 67 -7 c 0,10,11
 54 -7 54 -7 45.5 1.5 c 128,-1,12
 37 10 37 10 37 26 c 0,13,14
 37 32 37 32 38 37 c 128,-1,15
 39 42 39 42 44 52 c 1,16,17
 16 98 16 98 15 159 c 2,18,-1
 15 353 l 2,19,20
 15 393 15 393 24.5 426.5 c 128,-1,21
 34 460 34 460 52.5 484.5 c 128,-1,22
 71 509 71 509 99.5 522.5 c 128,-1,23
 128 536 128 536 167 536 c 0,24,25
 190 536 190 536 208.5 531 c 128,-1,26
 227 526 227 526 243 518 c 1,27,28
 254 533 254 533 271 533 c 0,29,30
 283 533 283 533 292 524.5 c 128,-1,31
 301 516 301 516 301 501 c 0,32,33
 301 494 301 494 299 488 c 128,-1,34
 297 482 297 482 292 471 c 1,35,36
 306 448 306 448 312.5 418.5 c 128,-1,37
 319 389 319 389 321 356 c 2,38,-1
 321 163 l 2,0,1
168 467 m 0,39,40
 145 467 145 467 129 456.5 c 128,-1,41
 113 446 113 446 103 428 c 128,-1,42
 93 410 93 410 88.5 386.5 c 128,-1,43
 84 363 84 363 84 338 c 2,44,-1
 84 178 l 2,45,46
 84 171 84 171 84.5 164.5 c 128,-1,47
 85 158 85 158 86 151 c 1,48,49
 101 186 101 186 117.5 226.5 c 128,-1,50
 134 267 134 267 151 307 c 128,-1,51
 168 347 168 347 184 384.5 c 128,-1,52
 200 422 200 422 212 451 c 1,53,54
 193 467 193 467 168 467 c 0,39,40
253 355 m 1,55,-1
 250 371 l 1,56,-1
 124 73 l 1,57,58
 144 58 144 58 168 58 c 0,59,60
 190 58 190 58 206 69 c 128,-1,61
 222 80 222 80 232.5 98 c 128,-1,62
 243 116 243 116 248 138 c 128,-1,63
 253 160 253 160 253 181 c 2,64,-1
 253 355 l 1,55,-1
EndSplineSet
EndChar

StartChar: one
Encoding: 49 49 20
Width: 335
GlyphClass: 2
Flags: W
LayerCount: 2
Fore
SplineSet
51 -1 m 6,0,1
 34 -1 34 -1 23 11 c 4,2,3
 14 21 14 21 14 33 c 4,4,5
 14 46 14 46 24 55.5 c 4,6,7
 36 67 36 67 54 67 c 6,8,-1
 146 67 l 1,9,-1
 146 420 l 1,10,11
 129 403 129 403 118 397 c 128,-1,12
 107 391 107 391 100 391 c 0,13,14
 86 391 86 391 77.5 399.5 c 128,-1,15
 69 408 69 408 69 422 c 0,16,17
 69 427 69 427 70.5 434 c 0,18,19
 73 444 73 444 77 448 c 2,20,-1
 80 451 l 2,21,22
 91 463 91 463 104.5 477.5 c 128,-1,23
 118 492 118 492 132.5 505 c 128,-1,24
 147 518 147 518 160 526.5 c 128,-1,25
 173 535 173 535 182 535 c 0,26,27
 205 535 205 535 214 506 c 1,28,-1
 214 67 l 1,29,-1
 306 67 l 1,30,31
 321 62 321 62 328 52.5 c 128,-1,32
 335 43 335 43 335 32 c 256,33,34
 335 21 335 21 326 12 c 128,-1,35
 317 3 317 3 301 -1 c 1,36,-1
 51 -1 l 6,0,1
EndSplineSet
EndChar

StartChar: two
Encoding: 50 50 21
Width: 335
GlyphClass: 2
Flags: W
LayerCount: 2
Fore
SplineSet
86 414 m 2,0,1
 78 404 78 404 70 401 c 128,-1,2
 62 398 62 398 54 398 c 0,3,4
 40 398 40 398 30 408 c 128,-1,5
 20 418 20 418 20 435 c 0,6,7
 20 447 20 447 26.5 459.5 c 128,-1,8
 33 472 33 472 43.5 483 c 128,-1,9
 54 494 54 494 66.5 503.5 c 128,-1,10
 79 513 79 513 90 518 c 0,11,12
 108 527 108 527 126.5 531 c 128,-1,13
 145 535 145 535 163 535 c 0,14,15
 193 535 193 535 221.5 524.5 c 128,-1,16
 250 514 250 514 272 495 c 128,-1,17
 294 476 294 476 307 449.5 c 128,-1,18
 320 423 320 423 320 392 c 0,19,20
 320 374 320 374 314 356.5 c 128,-1,21
 308 339 308 339 298.5 322 c 128,-1,22
 289 305 289 305 278 289 c 128,-1,23
 267 273 267 273 257 258 c 0,24,25
 253 252 253 252 242.5 237.5 c 128,-1,26
 232 223 232 223 218.5 204 c 128,-1,27
 205 185 205 185 190 164 c 128,-1,28
 175 143 175 143 161.5 124 c 128,-1,29
 148 105 148 105 137 89.5 c 128,-1,30
 126 74 126 74 121 67 c 1,31,-1
 263 67 l 2,32,33
 280 67 280 67 287.5 55 c 128,-1,34
 295 43 295 43 295 32 c 0,35,36
 295 22 295 22 285.5 10.5 c 128,-1,37
 276 -1 276 -1 257 -1 c 2,38,-1
 55 -1 l 2,39,40
 35 1 35 1 25 9.5 c 128,-1,41
 15 18 15 18 15 29 c 256,42,43
 15 40 15 40 25 55 c 0,44,45
 29 61 29 61 30 62 c 0,46,47
 50 91 50 91 64.5 112.5 c 128,-1,48
 79 134 79 134 97 160 c 128,-1,49
 115 186 115 186 141.5 223 c 128,-1,50
 168 260 168 260 211 321 c 0,51,52
 217 329 217 329 223 338 c 128,-1,53
 229 347 229 347 236 356 c 0,54,55
 242 367 242 367 243.5 373 c 128,-1,56
 245 379 245 379 245 394 c 0,57,58
 245 410 245 410 238 424 c 128,-1,59
 231 438 231 438 219.5 448 c 128,-1,60
 208 458 208 458 193.5 463.5 c 128,-1,61
 179 469 179 469 165 469 c 0,62,63
 141 469 141 469 120.5 454.5 c 128,-1,64
 100 440 100 440 88 416 c 1,65,-1
 86 414 l 2,0,1
EndSplineSet
EndChar

StartChar: three
Encoding: 51 51 22
Width: 335
GlyphClass: 2
Flags: W
LayerCount: 2
Fore
SplineSet
15 118 m 2,0,1
 15 136 15 136 25.5 146 c 128,-1,2
 36 156 36 156 50 156 c 0,3,4
 61 156 61 156 72 148.5 c 128,-1,5
 83 141 83 141 88 125 c 0,6,7
 93 96 93 96 111.5 77.5 c 128,-1,8
 130 59 130 59 161 59 c 0,9,10
 185 59 185 59 201 67 c 128,-1,11
 217 75 217 75 227.5 87.5 c 128,-1,12
 238 100 238 100 242.5 115.5 c 128,-1,13
 247 131 247 131 247 146 c 0,14,15
 247 201 247 201 217.5 223 c 128,-1,16
 188 245 188 245 145 248 c 1,17,-1
 146 248 l 1,18,19
 125 251 125 251 115 260.5 c 128,-1,20
 105 270 105 270 105 281 c 0,21,22
 105 290 105 290 114.5 303 c 128,-1,23
 124 316 124 316 144 316 c 0,24,25
 162 318 162 318 178.5 322 c 128,-1,26
 195 326 195 326 207.5 334.5 c 128,-1,27
 220 343 220 343 228 357 c 128,-1,28
 236 371 236 371 236 394 c 0,29,30
 236 406 236 406 229.5 419.5 c 128,-1,31
 223 433 223 433 212.5 443.5 c 128,-1,32
 202 454 202 454 188.5 461 c 128,-1,33
 175 468 175 468 161 468 c 0,34,35
 135 468 135 468 116.5 449.5 c 128,-1,36
 98 431 98 431 90 411 c 0,37,38
 85 396 85 396 74.5 389 c 128,-1,39
 64 382 64 382 53 382 c 0,40,41
 39 382 39 382 28 391.5 c 128,-1,42
 17 401 17 401 17 418 c 0,43,44
 17 420 17 420 19 430 c 0,45,46
 36 481 36 481 74.5 508 c 128,-1,47
 113 535 113 535 161 535 c 0,48,49
 191 535 191 535 218 523 c 128,-1,50
 245 511 245 511 266 490.5 c 128,-1,51
 287 470 287 470 299 444 c 128,-1,52
 311 418 311 418 311 390 c 0,53,54
 311 364 311 364 298 335.5 c 128,-1,55
 285 307 285 307 251 284 c 1,56,57
 286 257 286 257 303.5 221.5 c 128,-1,58
 321 186 321 186 321 147 c 0,59,60
 321 117 321 117 310.5 89 c 128,-1,61
 300 61 300 61 279.5 39.5 c 128,-1,62
 259 18 259 18 230 5 c 128,-1,63
 201 -8 201 -8 164 -8 c 0,64,65
 110 -8 110 -8 68 21.5 c 128,-1,66
 26 51 26 51 16 110 c 2,67,-1
 15 118 l 2,0,1
EndSplineSet
EndChar

StartChar: four
Encoding: 52 52 23
Width: 335
GlyphClass: 2
Flags: W
LayerCount: 2
Fore
SplineSet
46 147 m 2,0,1
 32 147 32 147 22.5 156 c 128,-1,2
 13 165 13 165 13 179 c 0,3,4
 13 189 13 189 20 202 c 0,5,6
 122 352 122 352 224 505 c 1,7,8
 238 516 238 516 251 516 c 0,9,10
 274 516 274 516 283 487 c 1,11,-1
 283 213 l 1,12,-1
 295 213 l 1,13,14
 309 208 309 208 316.5 199.5 c 128,-1,15
 324 191 324 191 324 180 c 256,16,17
 324 169 324 169 316 159.5 c 128,-1,18
 308 150 308 150 292 147 c 2,19,-1
 283 147 l 1,20,-1
 283 37 l 2,21,22
 281 19 281 19 271.5 9.5 c 128,-1,23
 262 0 262 0 250 0 c 0,24,25
 239 0 239 0 229 8.5 c 128,-1,26
 219 17 219 17 217 34 c 2,27,-1
 217 147 l 1,28,-1
 46 147 l 2,0,1
217 376 m 1,29,30
 189 334 189 334 161.5 294 c 128,-1,31
 134 254 134 254 107 213 c 1,32,-1
 217 213 l 1,33,-1
 217 376 l 1,34,-1
 217 376 l 1,29,30
EndSplineSet
EndChar

StartChar: five
Encoding: 53 53 24
Width: 335
GlyphClass: 2
Flags: W
LayerCount: 2
Fore
SplineSet
281 526 m 1,0,1
 297 521 297 521 303.5 511.5 c 128,-1,2
 310 502 310 502 310 491 c 0,3,4
 310 481 310 481 301.5 471.5 c 128,-1,5
 293 462 293 462 276 458 c 1,6,-1
 83 458 l 1,7,-1
 83 325 l 1,8,9
 100 330 100 330 117.5 332 c 128,-1,10
 135 334 135 334 148 334 c 0,11,12
 181 334 181 334 212.5 320.5 c 128,-1,13
 244 307 244 307 268 284 c 128,-1,14
 292 261 292 261 307 230 c 128,-1,15
 322 199 322 199 322 164 c 0,16,17
 322 128 322 128 307.5 96 c 128,-1,18
 293 64 293 64 268.5 40.5 c 128,-1,19
 244 17 244 17 212 3.5 c 128,-1,20
 180 -10 180 -10 144 -10 c 0,21,22
 131 -10 131 -10 115.5 -7.5 c 128,-1,23
 100 -5 100 -5 85.5 0 c 128,-1,24
 71 5 71 5 58 11 c 128,-1,25
 45 17 45 17 37 25 c 2,26,-1
 31 32 l 2,27,28
 16 46 16 46 16 62 c 0,29,30
 16 76 16 76 24.5 84.5 c 128,-1,31
 33 93 33 93 47 93 c 0,32,33
 58 93 58 93 74 83 c 0,34,35
 96 69 96 69 112 63.5 c 128,-1,36
 128 58 128 58 148 58 c 0,37,38
 169 58 169 58 188 66 c 128,-1,39
 207 74 207 74 221.5 88 c 128,-1,40
 236 102 236 102 244.5 121 c 128,-1,41
 253 140 253 140 253 162 c 256,42,43
 253 184 253 184 244 203.5 c 128,-1,44
 235 223 235 223 220.5 237 c 128,-1,45
 206 251 206 251 186.5 259 c 128,-1,46
 167 267 167 267 146 267 c 0,47,48
 131 267 131 267 117 263 c 128,-1,49
 103 259 103 259 90 254.5 c 128,-1,50
 77 250 77 250 66 246.5 c 128,-1,51
 55 243 55 243 46 243 c 0,52,53
 34 243 34 243 25.5 251 c 128,-1,54
 17 259 17 259 15 276 c 2,55,-1
 15 492 l 1,56,57
 19 509 19 509 28 517.5 c 128,-1,58
 37 526 37 526 55 526 c 2,59,-1
 281 526 l 1,0,1
EndSplineSet
EndChar

StartChar: six
Encoding: 54 54 25
Width: 335
GlyphClass: 2
Flags: W
LayerCount: 2
Fore
SplineSet
270 458 m 2,0,1
 264 459 264 459 246.5 459 c 128,-1,2
 229 459 229 459 204 459 c 0,3,4
 188 459 188 459 166.5 452.5 c 128,-1,5
 145 446 145 446 126 434.5 c 128,-1,6
 107 423 107 423 94 406 c 128,-1,7
 81 389 81 389 81 368 c 2,8,-1
 81 316 l 1,9,10
 101 326 101 326 127 334.5 c 128,-1,11
 153 343 153 343 168 343 c 0,12,13
 198 343 198 343 229 332.5 c 128,-1,14
 260 322 260 322 280 302 c 1,15,-1
 280 303 l 1,16,17
 299 283 299 283 310 258 c 128,-1,18
 321 233 321 233 321 204 c 2,19,-1
 321 130 l 2,20,21
 321 100 321 100 309.5 74 c 128,-1,22
 298 48 298 48 278 29.5 c 128,-1,23
 258 11 258 11 229.5 0.5 c 128,-1,24
 201 -10 201 -10 168 -10 c 256,25,26
 135 -10 135 -10 107 0.5 c 128,-1,27
 79 11 79 11 58 29.5 c 128,-1,28
 37 48 37 48 25.5 74 c 128,-1,29
 14 100 14 100 14 130 c 2,30,-1
 14 364 l 2,31,32
 14 390 14 390 24 418.5 c 128,-1,33
 34 447 34 447 56.5 470.5 c 128,-1,34
 79 494 79 494 115.5 509.5 c 128,-1,35
 152 525 152 525 204 525 c 2,36,-1
 226 525 l 2,37,38
 270 525 270 525 289.5 520.5 c 128,-1,39
 309 516 309 516 309 491 c 0,40,41
 309 474 309 474 297 465.5 c 128,-1,42
 285 457 285 457 272 457 c 1,43,-1
 270 458 l 2,0,1
81 130 m 2,44,45
 81 113 81 113 88.5 99.5 c 128,-1,46
 96 86 96 86 108.5 76.5 c 128,-1,47
 121 67 121 67 136.5 61.5 c 128,-1,48
 152 56 152 56 168 56 c 0,49,50
 183 56 183 56 198.5 62 c 128,-1,51
 214 68 214 68 226.5 78 c 128,-1,52
 239 88 239 88 247 101.5 c 128,-1,53
 255 115 255 115 255 130 c 2,54,-1
 255 204 l 2,55,56
 255 218 255 218 247 231.5 c 128,-1,57
 239 245 239 245 226 255 c 128,-1,58
 213 265 213 265 198 271 c 128,-1,59
 183 277 183 277 168 277 c 256,60,61
 153 277 153 277 137.5 271.5 c 128,-1,62
 122 266 122 266 109.5 256 c 128,-1,63
 97 246 97 246 89 232.5 c 128,-1,64
 81 219 81 219 81 204 c 2,65,-1
 81 130 l 2,44,45
EndSplineSet
EndChar

StartChar: seven
Encoding: 55 55 26
Width: 335
GlyphClass: 2
Flags: W
LayerCount: 2
Fore
SplineSet
46 459 m 1,0,1
 29 461 29 461 20.5 471 c 128,-1,2
 12 481 12 481 12 492 c 0,3,4
 12 504 12 504 21.5 514.5 c 128,-1,5
 31 525 31 525 49 525 c 2,6,-1
 295 525 l 1,7,8
 311 520 311 520 317 511 c 128,-1,9
 323 502 323 502 323 485 c 1,10,-1
 150 26 l 2,11,12
 145 12 145 12 136 6 c 128,-1,13
 127 0 127 0 117 0 c 0,14,15
 105 0 105 0 95.5 9 c 128,-1,16
 86 18 86 18 86 34 c 0,17,18
 86 41 86 41 87 45 c 2,19,-1
 243 459 l 1,20,-1
 46 459 l 1,21,-1
 46 459 l 1,0,1
EndSplineSet
EndChar

StartChar: eight
Encoding: 56 56 27
Width: 335
GlyphClass: 2
Flags: W
LayerCount: 2
Fore
SplineSet
166 -10 m 2,0,1
 131 -10 131 -10 103 2 c 128,-1,2
 75 14 75 14 55.5 34.5 c 128,-1,3
 36 55 36 55 25.5 83 c 128,-1,4
 15 111 15 111 15 143 c 0,5,6
 15 182 15 182 30.5 213.5 c 128,-1,7
 46 245 46 245 78 272 c 1,8,9
 30 321 30 321 30 386 c 0,10,11
 30 449 30 449 68 489 c 128,-1,12
 106 529 106 529 169 529 c 0,13,14
 199 529 199 529 224.5 518.5 c 128,-1,15
 250 508 250 508 268.5 489 c 128,-1,16
 287 470 287 470 297 443.5 c 128,-1,17
 307 417 307 417 307 386 c 0,18,19
 307 352 307 352 293.5 322 c 128,-1,20
 280 292 280 292 257 272 c 1,21,22
 321 221 321 221 321 143 c 0,23,24
 321 112 321 112 310.5 84.5 c 128,-1,25
 300 57 300 57 280.5 36 c 128,-1,26
 261 15 261 15 233.5 2.5 c 128,-1,27
 206 -10 206 -10 172 -10 c 2,28,-1
 166 -10 l 2,0,1
169 303 m 0,29,30
 204 304 204 304 218.5 327 c 128,-1,31
 233 350 233 350 233 383 c 0,32,33
 233 397 233 397 229 411 c 128,-1,34
 225 425 225 425 217 436.5 c 128,-1,35
 209 448 209 448 197 455 c 128,-1,36
 185 462 185 462 169 462 c 0,37,38
 152 462 152 462 139 455 c 128,-1,39
 126 448 126 448 117.5 436.5 c 128,-1,40
 109 425 109 425 105 411 c 128,-1,41
 101 397 101 397 101 383 c 0,42,43
 101 352 101 352 118 328.5 c 128,-1,44
 135 305 135 305 169 303 c 0,29,30
169 235 m 0,45,46
 131 235 131 235 109 210.5 c 128,-1,47
 87 186 87 186 87 146 c 0,48,49
 87 110 87 110 107.5 83 c 128,-1,50
 128 56 128 56 169 56 c 0,51,52
 189 56 189 56 204 63.5 c 128,-1,53
 219 71 219 71 229 83.5 c 128,-1,54
 239 96 239 96 244 112.5 c 128,-1,55
 249 129 249 129 249 146 c 0,56,57
 249 181 249 181 228.5 207.5 c 128,-1,58
 208 234 208 234 169 235 c 0,45,46
EndSplineSet
EndChar

StartChar: nine
Encoding: 57 57 28
Width: 335
GlyphClass: 2
Flags: W
LayerCount: 2
Fore
SplineSet
56 257 m 0,0,1
 15 298 15 298 15 367 c 0,2,3
 15 442 15 442 56.5 486 c 128,-1,4
 98 530 98 530 167 530 c 0,5,6
 201 530 201 530 229.5 518.5 c 128,-1,7
 258 507 258 507 278.5 486 c 128,-1,8
 299 465 299 465 310 435.5 c 128,-1,9
 321 406 321 406 321 371 c 2,10,-1
 321 350 l 2,11,12
 321 192 321 192 262 104 c 128,-1,13
 203 16 203 16 100 -5 c 0,14,15
 96 -7 96 -7 92 -7 c 128,-1,16
 88 -7 88 -7 85 -7 c 0,17,18
 71 -7 71 -7 62 3.5 c 128,-1,19
 53 14 53 14 53 26 c 0,20,21
 53 36 53 36 60 45 c 128,-1,22
 67 54 67 54 81 59 c 0,23,24
 134 75 134 75 173.5 116 c 128,-1,25
 213 157 213 157 235 223 c 1,26,27
 215 216 215 216 199 213.5 c 128,-1,28
 183 211 183 211 167 211 c 0,29,30
 99 211 99 211 56 257 c 0,0,1
86 370 m 0,31,32
 86 352 86 352 92.5 335.5 c 128,-1,33
 99 319 99 319 110 306.5 c 128,-1,34
 121 294 121 294 136.5 286.5 c 128,-1,35
 152 279 152 279 169 279 c 0,36,37
 204 279 204 279 228.5 300 c 128,-1,38
 253 321 253 321 253 370 c 0,39,40
 253 410 253 410 228.5 436 c 128,-1,41
 204 462 204 462 169 462 c 256,42,43
 134 462 134 462 110 436 c 128,-1,44
 86 410 86 410 86 370 c 0,31,32
EndSplineSet
EndChar

StartChar: colon
Encoding: 58 58 29
Width: 335
GlyphClass: 2
Flags: W
LayerCount: 2
Fore
SplineSet
116 343 m 256,0,1
 116 363 116 363 129.5 376.5 c 128,-1,2
 143 390 143 390 163 390 c 256,3,4
 183 390 183 390 196.5 376.5 c 128,-1,5
 210 363 210 363 210 343 c 256,6,7
 210 323 210 323 196.5 309.5 c 128,-1,8
 183 296 183 296 163 296 c 256,9,10
 143 296 143 296 129.5 309.5 c 128,-1,11
 116 323 116 323 116 343 c 256,0,1
116 52 m 256,12,13
 116 72 116 72 129.5 85.5 c 128,-1,14
 143 99 143 99 163 99 c 256,15,16
 183 99 183 99 196.5 85.5 c 128,-1,17
 210 72 210 72 210 52 c 256,18,19
 210 32 210 32 196.5 18.5 c 128,-1,20
 183 5 183 5 163 5 c 256,21,22
 143 5 143 5 129.5 18.5 c 128,-1,23
 116 32 116 32 116 52 c 256,12,13
EndSplineSet
EndChar

StartChar: semicolon
Encoding: 59 59 30
Width: 335
GlyphClass: 2
Flags: W
LayerCount: 2
Fore
SplineSet
116 343 m 256,0,1
 116 363 116 363 129.5 376.5 c 128,-1,2
 143 390 143 390 163 390 c 256,3,4
 183 390 183 390 196.5 376.5 c 128,-1,5
 210 363 210 363 210 343 c 256,6,7
 210 323 210 323 196.5 309.5 c 128,-1,8
 183 296 183 296 163 296 c 256,9,10
 143 296 143 296 129.5 309.5 c 128,-1,11
 116 323 116 323 116 343 c 256,0,1
157 -43 m 0,12,13
 144 -59 144 -59 127 -59 c 0,14,15
 115 -59 115 -59 106 -49.5 c 128,-1,16
 97 -40 97 -40 97 -24 c 0,17,18
 97 -18 97 -18 98 -14 c 0,19,20
 109 6 109 6 120.5 25.5 c 128,-1,21
 132 45 132 45 144 65 c 0,22,23
 157 85 157 85 176 85 c 0,24,25
 188 85 188 85 197 76.5 c 128,-1,26
 206 68 206 68 206 53 c 0,27,28
 206 45 206 45 203 36 c 0,29,30
 192 16 192 16 180.5 -3.5 c 128,-1,31
 169 -23 169 -23 157 -43 c 0,12,13
EndSplineSet
EndChar

StartChar: less
Encoding: 60 60 31
Width: 335
GlyphClass: 2
Flags: W
LayerCount: 2
Fore
SplineSet
265 427 m 0,0,1
 273 431 273 431 283 431 c 0,2,3
 297 431 297 431 305.5 422 c 128,-1,4
 314 413 314 413 314 401 c 0,5,6
 314 387 314 387 304 374 c 1,7,8
 256 346 256 346 210 318 c 128,-1,9
 164 290 164 290 117 262 c 1,10,11
 162 233 162 233 206.5 206.5 c 128,-1,12
 251 180 251 180 296 152 c 0,13,14
 306 146 306 146 310 137 c 128,-1,15
 314 128 314 128 314 120 c 0,16,17
 314 108 314 108 305.5 99 c 128,-1,18
 297 90 297 90 283 90 c 0,19,20
 272 90 272 90 263 95 c 2,21,-1
 35 235 l 1,22,23
 22 248 22 248 22 262 c 0,24,25
 22 278 22 278 37 290 c 0,26,27
 94 325 94 325 151 359 c 128,-1,28
 208 393 208 393 265 427 c 0,0,1
EndSplineSet
EndChar

StartChar: equal
Encoding: 61 61 32
Width: 335
GlyphClass: 2
Flags: W
LayerCount: 2
Fore
SplineSet
46 142 m 1,0,1
 29 144 29 144 20.5 154 c 128,-1,2
 12 164 12 164 12 175 c 0,3,4
 12 187 12 187 21 197.5 c 128,-1,5
 30 208 30 208 49 208 c 2,6,-1
 295 208 l 1,7,8
 309 203 309 203 316.5 194.5 c 128,-1,9
 324 186 324 186 324 175 c 256,10,11
 324 164 324 164 316 155 c 128,-1,12
 308 146 308 146 292 142 c 1,13,-1
 46 142 l 1,14,-1
 46 142 l 1,0,1
46 294 m 1,15,16
 29 296 29 296 20.5 306 c 128,-1,17
 12 316 12 316 12 327 c 0,18,19
 12 339 12 339 21 349.5 c 128,-1,20
 30 360 30 360 49 360 c 2,21,-1
 295 360 l 1,22,23
 309 355 309 355 316.5 346 c 128,-1,24
 324 337 324 337 324 327 c 0,25,26
 324 316 324 316 316 306.5 c 128,-1,27
 308 297 308 297 292 294 c 2,28,-1
 46 294 l 1,29,-1
 46 294 l 1,15,16
EndSplineSet
EndChar

StartChar: greater
Encoding: 62 62 33
Width: 335
GlyphClass: 2
Flags: W
LayerCount: 2
Fore
SplineSet
71 427 m 0,0,1
 129 393 129 393 185.5 359 c 128,-1,2
 242 325 242 325 299 290 c 0,3,4
 315 276 315 276 315 262 c 256,5,6
 315 248 315 248 302 235 c 1,7,-1
 74 95 l 2,8,9
 65 90 65 90 54 90 c 0,10,11
 40 90 40 90 31 99 c 128,-1,12
 22 108 22 108 22 121 c 0,13,14
 22 128 22 128 26 137 c 128,-1,15
 30 146 30 146 40 152 c 0,16,17
 85 180 85 180 130 206.5 c 128,-1,18
 175 233 175 233 220 262 c 1,19,20
 172 290 172 290 126 318 c 128,-1,21
 80 346 80 346 33 374 c 0,22,23
 27 381 27 381 24.5 388 c 128,-1,24
 22 395 22 395 22 401 c 0,25,26
 22 414 22 414 30.5 422.5 c 128,-1,27
 39 431 39 431 53 431 c 0,28,29
 62 431 62 431 71 427 c 0,0,1
EndSplineSet
EndChar

StartChar: question
Encoding: 63 63 34
Width: 335
GlyphClass: 2
Flags: W
LayerCount: 2
Fore
SplineSet
172 460 m 0,0,1
 122 460 122 460 118 398 c 0,2,3
 114 384 114 384 104 376 c 128,-1,4
 94 368 94 368 82 368 c 0,5,6
 71 368 71 368 60 376 c 128,-1,7
 49 384 49 384 47 398 c 0,8,9
 50 454 50 454 81.5 490 c 128,-1,10
 113 526 113 526 172 526 c 0,11,12
 226 526 226 526 261 494 c 128,-1,13
 296 462 296 462 296 400 c 0,14,15
 296 379 296 379 293 363 c 128,-1,16
 290 347 290 347 282 333 c 128,-1,17
 274 319 274 319 261 305 c 128,-1,18
 248 291 248 291 228 272 c 0,19,20
 221 267 221 267 216.5 264 c 128,-1,21
 212 261 212 261 210 255 c 128,-1,22
 208 249 208 249 207 239 c 128,-1,23
 206 229 206 229 206 211 c 2,24,-1
 206 183 l 2,25,26
 203 170 203 170 193 162.5 c 128,-1,27
 183 155 183 155 172 155 c 256,28,29
 161 155 161 155 150.5 162.5 c 128,-1,30
 140 170 140 170 137 183 c 2,31,-1
 137 211 l 2,32,33
 137 236 137 236 138.5 251.5 c 128,-1,34
 140 267 140 267 145 278.5 c 128,-1,35
 150 290 150 290 160 300.5 c 128,-1,36
 170 311 170 311 187 325 c 0,37,38
 209 346 209 346 218 360 c 128,-1,39
 227 374 227 374 227 400 c 0,40,41
 227 429 227 429 213.5 444.5 c 128,-1,42
 200 460 200 460 172 460 c 0,0,1
127 44 m 0,43,44
 127 64 127 64 139.5 77 c 128,-1,45
 152 90 152 90 172 90 c 256,46,47
 192 90 192 90 205 77 c 128,-1,48
 218 64 218 64 218 44 c 0,49,50
 218 25 218 25 205 12 c 128,-1,51
 192 -1 192 -1 172 -1 c 256,52,53
 152 -1 152 -1 139.5 12 c 128,-1,54
 127 25 127 25 127 44 c 0,43,44
EndSplineSet
EndChar

StartChar: at
Encoding: 64 64 35
Width: 335
GlyphClass: 2
Flags: W
LayerCount: 2
Fore
SplineSet
322 121 m 1,0,-1
 322 122 l 1,1,2
 322 108 322 108 312 101 c 128,-1,3
 302 94 302 94 290 94 c 0,4,5
 273 94 273 94 265 108 c 128,-1,6
 257 122 257 122 252 152 c 1,7,8
 220 128 220 128 202 128 c 0,9,10
 157 128 157 128 134.5 156.5 c 128,-1,11
 112 185 112 185 112 251 c 0,12,13
 112 307 112 307 136.5 341.5 c 128,-1,14
 161 376 161 376 202 376 c 0,15,16
 204 376 204 376 212.5 374.5 c 128,-1,17
 221 373 221 373 231 371 c 1,18,19
 216 454 216 454 162 454 c 0,20,21
 123 454 123 454 107 407.5 c 128,-1,22
 91 361 91 361 91 256 c 0,23,24
 91 159 91 159 107 118 c 128,-1,25
 123 77 123 77 155 77 c 1,26,-1
 193 89 l 2,27,28
 206 89 206 89 217 79 c 128,-1,29
 228 69 228 69 228 55 c 0,30,31
 228 45 228 45 220.5 37 c 128,-1,32
 213 29 213 29 202 23 c 128,-1,33
 191 17 191 17 177.5 14 c 128,-1,34
 164 11 164 11 151 11 c 0,35,36
 85 11 85 11 56.5 70.5 c 128,-1,37
 28 130 28 130 28 264 c 0,38,39
 28 332 28 332 36 380 c 128,-1,40
 44 428 44 428 60.5 458.5 c 128,-1,41
 77 489 77 489 103 503 c 128,-1,42
 129 517 129 517 164 517 c 0,43,44
 239 517 239 517 270 463 c 128,-1,45
 301 409 301 409 301 296 c 2,46,-1
 301 241 l 2,47,48
 301 221 301 221 304.5 197.5 c 128,-1,49
 308 174 308 174 321 131 c 1,50,-1
 322 121 l 1,0,-1
209 311 m 0,51,52
 195 311 195 311 185 295.5 c 128,-1,53
 175 280 175 280 175 251 c 0,54,55
 175 219 175 219 180.5 205.5 c 128,-1,56
 186 192 186 192 199 192 c 0,57,58
 222 192 222 192 229.5 214 c 128,-1,59
 237 236 237 236 238 286 c 1,60,61
 231 300 231 300 225 304.5 c 128,-1,62
 219 309 219 309 209 311 c 0,51,52
EndSplineSet
EndChar

StartChar: A
Encoding: 65 65 36
Width: 335
GlyphClass: 2
Flags: W
LayerCount: 2
Fore
SplineSet
137 504 m 1,0,1
 150 525 150 525 169 525 c 0,2,3
 178 525 178 525 187 517.5 c 128,-1,4
 196 510 196 510 200 496 c 2,5,-1
 324 37 l 1,6,7
 323 19 323 19 313.5 9.5 c 128,-1,8
 304 0 304 0 292 0 c 0,9,10
 277 0 277 0 266.5 16 c 128,-1,11
 256 32 256 32 249 55 c 128,-1,12
 242 78 242 78 237 103 c 128,-1,13
 232 128 232 128 226 147 c 1,14,-1
 109 147 l 1,15,-1
 77 26 l 2,16,17
 72 12 72 12 63 6 c 128,-1,18
 54 0 54 0 44 0 c 0,19,20
 32 0 32 0 22.5 9 c 128,-1,21
 13 18 13 18 13 34 c 2,22,-1
 14 45 l 1,23,-1
 137 504 l 1,0,1
168 365 m 1,24,25
 157 327 157 327 147.5 289 c 128,-1,26
 138 251 138 251 127 213 c 1,27,-1
 209 213 l 1,28,29
 198 251 198 251 188 289 c 128,-1,30
 178 327 178 327 168 365 c 1,24,25
EndSplineSet
EndChar

StartChar: B
Encoding: 66 66 37
Width: 335
GlyphClass: 2
Flags: W
LayerCount: 2
Fore
SplineSet
53 -1 m 2,0,1
 34 1 34 1 25.5 9.5 c 128,-1,2
 17 18 17 18 15 37 c 2,3,-1
 15 492 l 1,4,5
 22 526 22 526 56 526 c 2,6,-1
 137 526 l 2,7,8
 172 526 172 526 203 519.5 c 128,-1,9
 234 513 234 513 257 486 c 0,10,11
 275 466 275 466 285 441 c 128,-1,12
 295 416 295 416 295 390 c 0,13,14
 295 340 295 340 257 293 c 1,15,16
 289 267 289 267 304.5 231.5 c 128,-1,17
 320 196 320 196 320 160 c 0,18,19
 320 129 320 129 308.5 100 c 128,-1,20
 297 71 297 71 277 48.5 c 128,-1,21
 257 26 257 26 229.5 12.5 c 128,-1,22
 202 -1 202 -1 169 -1 c 2,23,-1
 53 -1 l 2,0,1
83 256 m 1,24,-1
 83 67 l 1,25,-1
 163 67 l 2,26,27
 181 67 181 67 197 74 c 128,-1,28
 213 81 213 81 225 93.5 c 128,-1,29
 237 106 237 106 244 122.5 c 128,-1,30
 251 139 251 139 251 158 c 0,31,32
 251 196 251 196 231.5 223.5 c 128,-1,33
 212 251 212 251 169 256 c 1,34,-1
 83 256 l 1,24,-1
83 323 m 1,35,-1
 166 323 l 1,36,37
 193 327 193 327 210 344.5 c 128,-1,38
 227 362 227 362 227 389 c 0,39,40
 227 415 227 415 210 435.5 c 128,-1,41
 193 456 193 456 164 458 c 2,42,-1
 83 458 l 1,43,-1
 83 323 l 1,35,-1
EndSplineSet
EndChar

StartChar: C
Encoding: 67 67 38
Width: 335
GlyphClass: 2
Flags: W
LayerCount: 2
Fore
SplineSet
196 534 m 2,0,1
 223 532 223 532 245.5 519 c 128,-1,2
 268 506 268 506 284.5 489 c 128,-1,3
 301 472 301 472 310.5 453.5 c 128,-1,4
 320 435 320 435 320 423 c 0,5,6
 320 406 320 406 307 397 c 128,-1,7
 294 388 294 388 280 388 c 0,8,9
 264 388 264 388 256 399.5 c 128,-1,10
 248 411 248 411 240 425 c 128,-1,11
 232 439 232 439 220 450.5 c 128,-1,12
 208 462 208 462 185 462 c 2,13,-1
 152 462 l 2,14,15
 138 462 138 462 125.5 455 c 128,-1,16
 113 448 113 448 104 435.5 c 128,-1,17
 95 423 95 423 89.5 406 c 128,-1,18
 84 389 84 389 84 370 c 2,19,-1
 84 156 l 2,20,21
 84 137 84 137 89.5 120 c 128,-1,22
 95 103 95 103 104 90.5 c 128,-1,23
 113 78 113 78 125.5 70.5 c 128,-1,24
 138 63 138 63 152 63 c 2,25,-1
 185 63 l 2,26,27
 208 63 208 63 220 75.5 c 128,-1,28
 232 88 232 88 240 102.5 c 128,-1,29
 248 117 248 117 256.5 129.5 c 128,-1,30
 265 142 265 142 280 142 c 0,31,32
 297 142 297 142 308.5 130.5 c 128,-1,33
 320 119 320 119 320 101 c 0,34,35
 320 98 320 98 313.5 80.5 c 128,-1,36
 307 63 307 63 292.5 43.5 c 128,-1,37
 278 24 278 24 253.5 8 c 128,-1,38
 229 -8 229 -8 193 -8 c 2,39,-1
 145 -8 l 2,40,41
 118 -8 118 -8 94.5 2.5 c 128,-1,42
 71 13 71 13 53.5 31.5 c 128,-1,43
 36 50 36 50 25.5 74.5 c 128,-1,44
 15 99 15 99 15 127 c 2,45,-1
 15 398 l 2,46,47
 15 426 15 426 25.5 451 c 128,-1,48
 36 476 36 476 53.5 494.5 c 128,-1,49
 71 513 71 513 94.5 523.5 c 128,-1,50
 118 534 118 534 145 534 c 2,51,-1
 196 534 l 2,0,1
EndSplineSet
EndChar

StartChar: D
Encoding: 68 68 39
Width: 335
GlyphClass: 2
Flags: W
LayerCount: 2
Fore
SplineSet
52 -1 m 2,0,1
 33 1 33 1 25 9.5 c 128,-1,2
 17 18 17 18 15 37 c 2,3,-1
 15 492 l 1,4,5
 19 509 19 509 28 517 c 128,-1,6
 37 525 37 525 56 526 c 2,7,-1
 170 526 l 2,8,9
 203 523 203 523 230.5 511 c 128,-1,10
 258 499 258 499 278 478.5 c 128,-1,11
 298 458 298 458 309 430 c 128,-1,12
 320 402 320 402 320 369 c 2,13,-1
 320 167 l 2,14,15
 320 101 320 101 282.5 54.5 c 128,-1,16
 245 8 245 8 170 -1 c 1,17,-1
 52 -1 l 2,0,1
160 67 m 1,18,19
 204 71 204 71 228 94 c 128,-1,20
 252 117 252 117 252 164 c 2,21,-1
 252 365 l 2,22,23
 252 401 252 401 231 429.5 c 128,-1,24
 210 458 210 458 170 458 c 2,25,-1
 83 458 l 1,26,-1
 83 67 l 1,27,-1
 160 67 l 1,18,19
EndSplineSet
EndChar

StartChar: E
Encoding: 69 69 40
Width: 335
GlyphClass: 2
Flags: W
LayerCount: 2
Fore
SplineSet
292 67 m 1,0,1
 307 62 307 62 314.5 52.5 c 128,-1,2
 322 43 322 43 322 32 c 0,3,4
 322 22 322 22 312.5 12.5 c 128,-1,5
 303 3 303 3 287 -1 c 1,6,-1
 53 -1 l 2,7,8
 34 1 34 1 25.5 9.5 c 128,-1,9
 17 18 17 18 15 37 c 2,10,-1
 15 492 l 1,11,12
 19 509 19 509 28 517.5 c 128,-1,13
 37 526 37 526 55 526 c 2,14,-1
 292 526 l 1,15,16
 322 515 322 515 322 491 c 0,17,18
 322 481 322 481 312.5 471.5 c 128,-1,19
 303 462 303 462 287 458 c 1,20,-1
 83 458 l 1,21,-1
 83 306 l 1,22,-1
 242 306 l 1,23,24
 258 301 258 301 265 292 c 128,-1,25
 272 283 272 283 272 272 c 256,26,27
 272 261 272 261 263 251.5 c 128,-1,28
 254 242 254 242 237 238 c 1,29,-1
 83 238 l 1,30,-1
 83 67 l 1,31,-1
 292 67 l 1,0,1
EndSplineSet
EndChar

StartChar: F
Encoding: 70 70 41
Width: 335
GlyphClass: 2
Flags: W
LayerCount: 2
Fore
SplineSet
83 39 m 2,0,1
 82 19 82 19 71.5 9 c 128,-1,2
 61 -1 61 -1 49 -1 c 0,3,4
 38 -1 38 -1 27.5 8 c 128,-1,5
 17 17 17 17 15 37 c 2,6,-1
 15 492 l 1,7,8
 19 509 19 509 28 517.5 c 128,-1,9
 37 526 37 526 55 526 c 2,10,-1
 292 526 l 1,11,12
 322 515 322 515 322 491 c 0,13,14
 322 481 322 481 312.5 471.5 c 128,-1,15
 303 462 303 462 287 458 c 1,16,-1
 83 458 l 1,17,-1
 83 306 l 1,18,-1
 242 306 l 1,19,20
 258 301 258 301 265 292 c 128,-1,21
 272 283 272 283 272 272 c 256,22,23
 272 261 272 261 263 251.5 c 128,-1,24
 254 242 254 242 237 238 c 1,25,-1
 83 238 l 1,26,-1
 83 39 l 2,0,1
EndSplineSet
EndChar

StartChar: G
Encoding: 71 71 42
Width: 335
GlyphClass: 2
Flags: W
LayerCount: 2
Fore
SplineSet
203 231 m 2,0,1
 186 233 186 233 176.5 243.5 c 128,-1,2
 167 254 167 254 167 265 c 0,3,4
 167 278 167 278 177.5 288.5 c 128,-1,5
 188 299 188 299 208 299 c 2,6,-1
 293 299 l 1,7,8
 315 293 315 293 321 271 c 1,9,-1
 321 124 l 2,10,11
 321 105 321 105 313 82 c 128,-1,12
 305 59 305 59 288.5 39 c 128,-1,13
 272 19 272 19 247.5 5.5 c 128,-1,14
 223 -8 223 -8 190 -8 c 2,15,-1
 145 -8 l 2,16,17
 118 -8 118 -8 94.5 2.5 c 128,-1,18
 71 13 71 13 53.5 31.5 c 128,-1,19
 36 50 36 50 25.5 74.5 c 128,-1,20
 15 99 15 99 15 127 c 2,21,-1
 15 398 l 2,22,23
 15 426 15 426 25.5 451 c 128,-1,24
 36 476 36 476 53.5 494.5 c 128,-1,25
 71 513 71 513 94.5 523.5 c 128,-1,26
 118 534 118 534 145 534 c 2,27,-1
 194 534 l 2,28,29
 219 534 219 534 241.5 521.5 c 128,-1,30
 264 509 264 509 281 492 c 128,-1,31
 298 475 298 475 307.5 455.5 c 128,-1,32
 317 436 317 436 317 423 c 0,33,34
 317 406 317 406 304.5 397 c 128,-1,35
 292 388 292 388 278 388 c 0,36,37
 261 388 261 388 253 399.5 c 128,-1,38
 245 411 245 411 237 425 c 128,-1,39
 229 439 229 439 217.5 450.5 c 128,-1,40
 206 462 206 462 183 462 c 2,41,-1
 152 462 l 2,42,43
 138 462 138 462 125.5 455 c 128,-1,44
 113 448 113 448 104 435.5 c 128,-1,45
 95 423 95 423 89.5 406 c 128,-1,46
 84 389 84 389 84 370 c 2,47,-1
 84 156 l 2,48,49
 84 137 84 137 89.5 120 c 128,-1,50
 95 103 95 103 104 90.5 c 128,-1,51
 113 78 113 78 125.5 70.5 c 128,-1,52
 138 63 138 63 152 63 c 2,53,-1
 183 63 l 2,54,55
 200 66 200 66 213 75 c 128,-1,56
 226 84 226 84 234.5 97 c 128,-1,57
 243 110 243 110 247.5 125.5 c 128,-1,58
 252 141 252 141 253 156 c 2,59,-1
 253 231 l 1,60,-1
 203 231 l 2,0,1
EndSplineSet
EndChar

StartChar: H
Encoding: 72 72 43
Width: 335
GlyphClass: 2
Flags: W
LayerCount: 2
Fore
SplineSet
252 492 m 1,0,1
 256 509 256 509 265.5 518 c 128,-1,2
 275 527 275 527 286 527 c 0,3,4
 296 527 296 527 305.5 519 c 128,-1,5
 315 511 315 511 320 497 c 1,6,-1
 320 40 l 2,7,8
 320 20 320 20 309.5 9.5 c 128,-1,9
 299 -1 299 -1 287 -1 c 256,10,11
 275 -1 275 -1 265 8 c 128,-1,12
 255 17 255 17 252 36 c 2,13,-1
 252 239 l 1,14,-1
 83 239 l 1,15,-1
 83 40 l 2,16,17
 83 20 83 20 72 9.5 c 128,-1,18
 61 -1 61 -1 49 -1 c 0,19,20
 38 -1 38 -1 27.5 8 c 128,-1,21
 17 17 17 17 15 36 c 2,22,-1
 15 492 l 1,23,24
 19 509 19 509 28.5 518 c 128,-1,25
 38 527 38 527 49 527 c 0,26,27
 59 527 59 527 68.5 519 c 128,-1,28
 78 511 78 511 83 497 c 1,29,-1
 83 307 l 1,30,-1
 252 307 l 1,31,-1
 252 492 l 1,0,1
EndSplineSet
EndChar

StartChar: I
Encoding: 73 73 44
Width: 335
GlyphClass: 2
Flags: W
LayerCount: 2
Fore
SplineSet
109 458 m 2,0,1
 92 460 92 460 82.5 470 c 128,-1,2
 73 480 73 480 73 492 c 0,3,4
 73 505 73 505 83 515.5 c 128,-1,5
 93 526 93 526 113 526 c 2,6,-1
 235 526 l 1,7,8
 265 516 265 516 265 491 c 0,9,10
 265 481 265 481 255.5 471.5 c 128,-1,11
 246 462 246 462 230 458 c 1,12,-1
 202 458 l 1,13,-1
 202 67 l 1,14,-1
 235 67 l 1,15,16
 251 62 251 62 258 52.5 c 128,-1,17
 265 43 265 43 265 32 c 0,18,19
 265 22 265 22 255.5 12.5 c 128,-1,20
 246 3 246 3 230 -1 c 1,21,-1
 109 -1 l 2,22,23
 92 1 92 1 82.5 12 c 128,-1,24
 73 23 73 23 73 34 c 0,25,26
 73 46 73 46 83 56.5 c 128,-1,27
 93 67 93 67 113 67 c 2,28,-1
 134 67 l 1,29,-1
 134 458 l 1,30,-1
 109 458 l 2,0,1
EndSplineSet
EndChar

StartChar: J
Encoding: 74 74 45
Width: 335
GlyphClass: 2
Flags: W
LayerCount: 2
Fore
SplineSet
22 67 m 2,0,1
 18 74 18 74 17.5 77.5 c 128,-1,2
 17 81 17 81 17 86 c 0,3,4
 17 101 17 101 26 110 c 128,-1,5
 35 119 35 119 48 119 c 0,6,7
 67 119 67 119 80 99 c 0,8,9
 94 79 94 79 117 68.5 c 128,-1,10
 140 58 140 58 164 58 c 0,11,12
 201 58 201 58 226.5 82 c 128,-1,13
 252 106 252 106 252 151 c 2,14,-1
 252 492 l 1,15,16
 256 509 256 509 265.5 518 c 128,-1,17
 275 527 275 527 286 527 c 0,18,19
 296 527 296 527 305.5 519 c 128,-1,20
 315 511 315 511 320 497 c 1,21,-1
 320 154 l 2,22,23
 320 114 320 114 307 83.5 c 128,-1,24
 294 53 294 53 272 33 c 128,-1,25
 250 13 250 13 221 2.5 c 128,-1,26
 192 -8 192 -8 161 -8 c 0,27,28
 122 -8 122 -8 84.5 9.5 c 128,-1,29
 47 27 47 27 23 65 c 1,30,-1
 22 67 l 2,0,1
EndSplineSet
EndChar

StartChar: K
Encoding: 75 75 46
Width: 335
GlyphClass: 2
Flags: W
LayerCount: 2
Fore
SplineSet
311 58 m 2,0,1
 321 43 321 43 321 31 c 0,2,3
 321 17 321 17 312 8 c 128,-1,4
 303 -1 303 -1 290 -1 c 256,5,6
 277 -1 277 -1 260 13 c 1,7,-1
 110 215 l 1,8,-1
 85 182 l 1,9,-1
 85 40 l 2,10,11
 85 20 85 20 74 9.5 c 128,-1,12
 63 -1 63 -1 50 -1 c 0,13,14
 39 -1 39 -1 28.5 8 c 128,-1,15
 18 17 18 17 16 36 c 2,16,-1
 16 492 l 1,17,18
 21 509 21 509 30.5 518 c 128,-1,19
 40 527 40 527 50 527 c 0,20,21
 72 527 72 527 85 497 c 1,22,-1
 85 291 l 1,23,24
 104 315 104 315 127 344 c 128,-1,25
 150 373 150 373 173 402.5 c 128,-1,26
 196 432 196 432 219 460.5 c 128,-1,27
 242 489 242 489 262 514 c 1,28,29
 276 524 276 524 290 524 c 0,30,31
 303 524 303 524 311.5 515 c 128,-1,32
 320 506 320 506 320 492 c 0,33,34
 320 484 320 484 317 474 c 2,35,-1
 154 269 l 1,36,-1
 311 58 l 2,0,1
EndSplineSet
EndChar

StartChar: L
Encoding: 76 76 47
Width: 335
GlyphClass: 2
Flags: W
LayerCount: 2
Fore
SplineSet
12 492 m 1,0,1
 16 509 16 509 25.5 518 c 128,-1,2
 35 527 35 527 46 527 c 0,3,4
 56 527 56 527 65.5 519 c 128,-1,5
 75 511 75 511 80 497 c 1,6,-1
 80 67 l 1,7,-1
 293 67 l 1,8,9
 309 62 309 62 316 52.5 c 128,-1,10
 323 43 323 43 323 32 c 0,11,12
 323 22 323 22 314 12.5 c 128,-1,13
 305 3 305 3 289 -1 c 1,14,-1
 50 -1 l 2,15,16
 31 1 31 1 22.5 9.5 c 128,-1,17
 14 18 14 18 12 36 c 2,18,-1
 12 492 l 1,0,1
EndSplineSet
EndChar

StartChar: M
Encoding: 77 77 48
Width: 335
GlyphClass: 2
Flags: W
LayerCount: 2
Fore
SplineSet
78 37 m 1,0,1
 77 19 77 19 67 9.5 c 128,-1,2
 57 0 57 0 45 0 c 0,3,4
 34 0 34 0 24 8.5 c 128,-1,5
 14 17 14 17 12 34 c 2,6,-1
 12 493 l 2,7,8
 15 509 15 509 24 517 c 128,-1,9
 33 525 33 525 44 525 c 0,10,11
 61 525 61 525 74 506 c 2,12,-1
 168 335 l 1,13,-1
 261 504 l 2,14,15
 273 525 273 525 292 525 c 0,16,17
 302 525 302 525 310.5 517.5 c 128,-1,18
 319 510 319 510 324 496 c 1,19,-1
 324 37 l 2,20,21
 323 19 323 19 313 9.5 c 128,-1,22
 303 0 303 0 291 0 c 0,23,24
 280 0 280 0 270 8.5 c 128,-1,25
 260 17 260 17 258 34 c 2,26,-1
 258 362 l 1,27,28
 243 334 243 334 227.5 306 c 128,-1,29
 212 278 212 278 196 249 c 0,30,31
 183 233 183 233 169 233 c 256,32,33
 155 233 155 233 141 247 c 1,34,35
 125 276 125 276 109.5 305 c 128,-1,36
 94 334 94 334 78 363 c 1,37,-1
 78 37 l 1,38,-1
 78 37 l 1,0,1
EndSplineSet
EndChar

StartChar: N
Encoding: 78 78 49
Width: 335
GlyphClass: 2
Flags: W
LayerCount: 2
Fore
SplineSet
78 37 m 1,0,1
 77 19 77 19 67 9.5 c 128,-1,2
 57 0 57 0 45 0 c 0,3,4
 34 0 34 0 24 8.5 c 128,-1,5
 14 17 14 17 12 34 c 2,6,-1
 12 493 l 2,7,8
 15 509 15 509 24 517 c 128,-1,9
 33 525 33 525 44 525 c 0,10,11
 61 525 61 525 74 506 c 2,12,-1
 258 164 l 1,13,-1
 258 493 l 2,14,15
 261 509 261 509 270.5 517 c 128,-1,16
 280 525 280 525 291 525 c 256,17,18
 302 525 302 525 310.5 517.5 c 128,-1,19
 319 510 319 510 324 496 c 1,20,-1
 324 37 l 2,21,22
 323 20 323 20 314 10 c 128,-1,23
 305 0 305 0 293 0 c 0,24,25
 278 0 278 0 264 14 c 1,26,-1
 78 362 l 1,27,-1
 78 37 l 1,28,-1
 78 37 l 1,0,1
EndSplineSet
EndChar

StartChar: O
Encoding: 79 79 50
Width: 335
GlyphClass: 2
Flags: W
LayerCount: 2
Fore
SplineSet
252 398 m 2,0,1
 252 417 252 417 245 430 c 0,2,3
 239 446 239 446 225 456.5 c 128,-1,4
 211 467 211 467 194 467 c 2,5,-1
 148 467 l 2,6,7
 138 467 138 467 134 466 c 0,8,9
 111 462 111 462 97 439 c 128,-1,10
 83 416 83 416 83 394 c 2,11,-1
 83 149 l 2,12,13
 83 135 83 135 84 121 c 128,-1,14
 85 107 85 107 91 94 c 0,15,16
 102 69 102 69 121 63 c 128,-1,17
 140 57 140 57 163 57 c 2,18,-1
 191 57 l 2,19,20
 202 58 202 58 211 60.5 c 128,-1,21
 220 63 220 63 229 70 c 0,22,23
 244 82 244 82 247.5 98 c 128,-1,24
 251 114 251 114 252 131 c 2,25,-1
 252 398 l 2,0,1
320 121 m 2,26,27
 318 90 318 90 307 63 c 128,-1,28
 296 36 296 36 272 16 c 0,29,30
 238 -10 238 -10 194 -10 c 2,31,-1
 173 -10 l 2,32,33
 133 -10 133 -10 99 0 c 128,-1,34
 65 10 65 10 40 45 c 0,35,36
 25 67 25 67 20 94 c 128,-1,37
 15 121 15 121 15 149 c 2,38,-1
 15 398 l 2,39,40
 15 420 15 420 23 442.5 c 128,-1,41
 31 465 31 465 45 483.5 c 128,-1,42
 59 502 59 502 78.5 515 c 128,-1,43
 98 528 98 528 121 533 c 0,44,45
 129 535 129 535 138.5 535.5 c 128,-1,46
 148 536 148 536 157 536 c 2,47,-1
 197 536 l 2,48,49
 221 534 221 534 245 522.5 c 128,-1,50
 269 511 269 511 286 494 c 0,51,52
 302 475 302 475 311 450.5 c 128,-1,53
 320 426 320 426 320 401 c 2,54,-1
 320 121 l 2,26,27
EndSplineSet
EndChar

StartChar: P
Encoding: 80 80 51
Width: 335
GlyphClass: 2
Flags: W
LayerCount: 2
Fore
SplineSet
83 40 m 2,0,1
 82 20 82 20 71.5 9.5 c 128,-1,2
 61 -1 61 -1 49 -1 c 0,3,4
 38 -1 38 -1 27.5 8 c 128,-1,5
 17 17 17 17 15 37 c 2,6,-1
 15 492 l 1,7,8
 19 509 19 509 28 517.5 c 128,-1,9
 37 526 37 526 55 526 c 2,10,-1
 191 526 l 2,11,12
 206 526 206 526 219 521 c 128,-1,13
 232 516 232 516 243 510 c 0,14,15
 281 488 281 488 300.5 451 c 128,-1,16
 320 414 320 414 320 374 c 256,17,18
 320 334 320 334 300.5 298 c 128,-1,19
 281 262 281 262 239 242 c 0,20,21
 228 236 228 236 215 232 c 128,-1,22
 202 228 202 228 188 227 c 2,23,-1
 83 227 l 1,24,-1
 83 40 l 2,0,1
83 296 m 1,25,-1
 179 296 l 2,26,27
 187 296 187 296 195.5 297.5 c 128,-1,28
 204 299 204 299 211 304 c 0,29,30
 232 316 232 316 242 335 c 128,-1,31
 252 354 252 354 252 374 c 0,32,33
 252 396 252 396 241 416 c 128,-1,34
 230 436 230 436 209 450 c 0,35,36
 198 458 198 458 182 458 c 2,37,-1
 83 458 l 1,38,-1
 83 296 l 1,25,-1
EndSplineSet
EndChar

StartChar: Q
Encoding: 81 81 52
Width: 335
GlyphClass: 2
Flags: W
LayerCount: 2
Fore
SplineSet
320 121 m 2,0,1
 318 102 318 102 314 84.5 c 128,-1,2
 310 67 310 67 301 51 c 1,3,-1
 305 47 l 2,4,5
 314 33 314 33 314 21 c 0,6,7
 314 7 314 7 305.5 -1.5 c 128,-1,8
 297 -10 297 -10 283 -10 c 0,9,10
 268 -10 268 -10 252 4 c 1,11,12
 224 -10 224 -10 194 -10 c 2,13,-1
 173 -10 l 2,14,15
 133 -10 133 -10 99 0 c 128,-1,16
 65 10 65 10 40 45 c 0,17,18
 25 67 25 67 20 94 c 128,-1,19
 15 121 15 121 15 149 c 2,20,-1
 15 398 l 2,21,22
 15 420 15 420 23 442.5 c 128,-1,23
 31 465 31 465 45 483.5 c 128,-1,24
 59 502 59 502 78.5 515 c 128,-1,25
 98 528 98 528 121 533 c 0,26,27
 129 535 129 535 138.5 535.5 c 128,-1,28
 148 536 148 536 157 536 c 2,29,-1
 197 536 l 2,30,31
 221 534 221 534 245 522.5 c 128,-1,32
 269 511 269 511 286 494 c 0,33,34
 302 475 302 475 311 450.5 c 128,-1,35
 320 426 320 426 320 401 c 2,36,-1
 320 121 l 2,0,1
177 82 m 2,37,38
 170 94 170 94 170 104 c 0,39,40
 170 118 170 118 179 127 c 128,-1,41
 188 136 188 136 200 136 c 0,42,43
 216 136 216 136 227 126 c 0,44,45
 232 121 232 121 238 115.5 c 128,-1,46
 244 110 244 110 249 104 c 1,47,48
 251 111 251 111 251 117.5 c 128,-1,49
 251 124 251 124 252 131 c 2,50,-1
 252 398 l 2,51,52
 252 417 252 417 245 431 c 1,53,-1
 245 430 l 1,54,55
 239 446 239 446 225 456.5 c 128,-1,56
 211 467 211 467 194 467 c 2,57,-1
 148 467 l 2,58,59
 138 467 138 467 134 466 c 0,60,61
 111 462 111 462 97 439 c 128,-1,62
 83 416 83 416 83 394 c 2,63,-1
 83 149 l 2,64,65
 83 135 83 135 84 121 c 128,-1,66
 85 107 85 107 91 94 c 0,67,68
 102 69 102 69 121 63 c 128,-1,69
 140 57 140 57 163 57 c 2,70,-1
 191 57 l 2,71,72
 197 57 197 57 200 58 c 1,73,-1
 177 82 l 2,37,38
EndSplineSet
EndChar

StartChar: R
Encoding: 82 82 53
Width: 335
GlyphClass: 2
Flags: W
LayerCount: 2
Fore
SplineSet
318 47 m 2,0,1
 320 37 320 37 320 33 c 0,2,3
 320 18 320 18 311 8.5 c 128,-1,4
 302 -1 302 -1 289 -1 c 0,5,6
 282 -1 282 -1 274.5 1.5 c 128,-1,7
 267 4 267 4 259 12 c 0,8,9
 226 63 226 63 188.5 118.5 c 128,-1,10
 151 174 151 174 117 227 c 1,11,-1
 83 227 l 1,12,-1
 83 39 l 2,13,14
 83 19 83 19 72 9 c 128,-1,15
 61 -1 61 -1 49 -1 c 0,16,17
 38 -1 38 -1 27.5 8 c 128,-1,18
 17 17 17 17 15 37 c 2,19,-1
 15 492 l 1,20,21
 19 509 19 509 28 517.5 c 128,-1,22
 37 526 37 526 55 526 c 2,23,-1
 191 526 l 2,24,25
 206 526 206 526 219 521 c 128,-1,26
 232 516 232 516 243 510 c 0,27,28
 281 488 281 488 300.5 451 c 128,-1,29
 320 414 320 414 320 374 c 0,30,31
 320 350 320 350 312.5 326 c 128,-1,32
 305 302 305 302 290 282 c 128,-1,33
 275 262 275 262 252 247.5 c 128,-1,34
 229 233 229 233 198 228 c 1,35,-1
 318 47 l 2,0,1
83 296 m 1,36,-1
 179 296 l 2,37,38
 198 297 198 297 212 304.5 c 128,-1,39
 226 312 226 312 235 323.5 c 128,-1,40
 244 335 244 335 248 348.5 c 128,-1,41
 252 362 252 362 252 374 c 256,42,43
 252 386 252 386 247 400.5 c 128,-1,44
 242 415 242 415 233 428 c 128,-1,45
 224 441 224 441 211 449.5 c 128,-1,46
 198 458 198 458 182 458 c 2,47,-1
 83 458 l 1,48,-1
 83 296 l 1,36,-1
EndSplineSet
EndChar

StartChar: S
Encoding: 83 83 54
Width: 335
GlyphClass: 2
Flags: W
LayerCount: 2
Fore
SplineSet
291 463 m 0,0,1
 301 449 301 449 301 435 c 0,2,3
 301 422 301 422 292 413 c 128,-1,4
 283 404 283 404 270 404 c 0,5,6
 262 404 262 404 250.5 409 c 128,-1,7
 239 414 239 414 234 425 c 0,8,9
 224 437 224 437 208.5 447.5 c 128,-1,10
 193 458 193 458 172 458 c 0,11,12
 158 458 158 458 142.5 452.5 c 128,-1,13
 127 447 127 447 114 437 c 128,-1,14
 101 427 101 427 92 413 c 128,-1,15
 83 399 83 399 83 382 c 0,16,17
 83 354 83 354 98.5 340.5 c 128,-1,18
 114 327 114 327 136 321 c 128,-1,19
 158 315 158 315 181.5 313 c 128,-1,20
 205 311 205 311 222 305 c 0,21,22
 243 296 243 296 261.5 280.5 c 128,-1,23
 280 265 280 265 293.5 245 c 128,-1,24
 307 225 307 225 314.5 202.5 c 128,-1,25
 322 180 322 180 322 157 c 0,26,27
 322 125 322 125 310.5 95.5 c 128,-1,28
 299 66 299 66 278.5 44 c 128,-1,29
 258 22 258 22 230 9 c 128,-1,30
 202 -4 202 -4 170 -4 c 0,31,32
 128 -4 128 -4 96 16 c 128,-1,33
 64 36 64 36 40 65 c 0,34,35
 35 77 35 77 35 87 c 0,36,37
 35 101 35 101 43.5 109.5 c 128,-1,38
 52 118 52 118 65 118 c 0,39,40
 76 118 76 118 83.5 113 c 128,-1,41
 91 108 91 108 99 101 c 128,-1,42
 107 94 107 94 116.5 85.5 c 128,-1,43
 126 77 126 77 140 71 c 0,44,45
 152 65 152 65 169 65 c 0,46,47
 188 65 188 65 204 73 c 128,-1,48
 220 81 220 81 230.5 93.5 c 128,-1,49
 241 106 241 106 247 122 c 128,-1,50
 253 138 253 138 253 154 c 0,51,52
 253 167 253 167 248 185 c 0,53,54
 240 213 240 213 226.5 225 c 128,-1,55
 213 237 213 237 196 241.5 c 128,-1,56
 179 246 179 246 159.5 247 c 128,-1,57
 140 248 140 248 121 254 c 0,58,59
 100 261 100 261 81 273.5 c 128,-1,60
 62 286 62 286 47 303 c 128,-1,61
 32 320 32 320 23.5 341 c 128,-1,62
 15 362 15 362 15 385 c 0,63,64
 15 415 15 415 30 440.5 c 128,-1,65
 45 466 45 466 67.5 485 c 128,-1,66
 90 504 90 504 117.5 515 c 128,-1,67
 145 526 145 526 170 526 c 0,68,69
 204 526 204 526 236 510.5 c 128,-1,70
 268 495 268 495 291 463 c 0,0,1
EndSplineSet
EndChar

StartChar: T
Encoding: 84 84 55
Width: 335
GlyphClass: 2
Flags: W
LayerCount: 2
Fore
SplineSet
295 525 m 1,0,1
 309 520 309 520 316.5 511.5 c 128,-1,2
 324 503 324 503 324 492 c 256,3,4
 324 481 324 481 316 471.5 c 128,-1,5
 308 462 308 462 292 459 c 2,6,-1
 201 459 l 1,7,-1
 201 37 l 2,8,9
 200 19 200 19 190 9.5 c 128,-1,10
 180 0 180 0 168 0 c 0,11,12
 157 0 157 0 147 8.5 c 128,-1,13
 137 17 137 17 135 34 c 2,14,-1
 135 459 l 1,15,-1
 46 459 l 2,16,17
 29 461 29 461 20.5 471 c 128,-1,18
 12 481 12 481 12 492 c 0,19,20
 12 504 12 504 21.5 514 c 128,-1,21
 31 524 31 524 49 525 c 2,22,-1
 295 525 l 1,0,1
EndSplineSet
EndChar

StartChar: U
Encoding: 85 85 56
Width: 335
GlyphClass: 2
Flags: W
LayerCount: 2
Fore
SplineSet
252 491 m 1,0,1
 256 508 256 508 265.5 517 c 128,-1,2
 275 526 275 526 286 526 c 0,3,4
 296 526 296 526 305.5 518.5 c 128,-1,5
 315 511 315 511 320 496 c 1,6,-1
 320 121 l 2,7,8
 318 91 318 91 307 63.5 c 128,-1,9
 296 36 296 36 272 16 c 0,10,11
 238 -10 238 -10 194 -10 c 2,12,-1
 173 -10 l 2,13,14
 133 -10 133 -10 99 0 c 128,-1,15
 65 10 65 10 40 45 c 0,16,17
 25 67 25 67 20 94.5 c 128,-1,18
 15 122 15 122 15 149 c 2,19,-1
 15 491 l 1,20,21
 19 508 19 508 28.5 517 c 128,-1,22
 38 526 38 526 49 526 c 0,23,24
 59 526 59 526 68.5 518.5 c 128,-1,25
 78 511 78 511 83 496 c 1,26,-1
 83 149 l 2,27,28
 83 135 83 135 84 121.5 c 128,-1,29
 85 108 85 108 91 95 c 0,30,31
 102 69 102 69 121 63 c 128,-1,32
 140 57 140 57 163 57 c 2,33,-1
 191 57 l 2,34,35
 202 58 202 58 211 60.5 c 128,-1,36
 220 63 220 63 229 70 c 0,37,38
 244 82 244 82 247.5 98 c 128,-1,39
 251 114 251 114 252 131 c 2,40,-1
 252 491 l 1,0,1
EndSplineSet
EndChar

StartChar: V
Encoding: 86 86 57
Width: 335
GlyphClass: 2
Flags: W
LayerCount: 2
Fore
SplineSet
13 489 m 2,0,1
 13 506 13 506 22.5 515.5 c 128,-1,2
 32 525 32 525 44 525 c 0,3,4
 55 525 55 525 64.5 518 c 128,-1,5
 74 511 74 511 78 496 c 2,6,-1
 168 160 l 1,7,8
 191 246 191 246 214 331.5 c 128,-1,9
 237 417 237 417 260 504 c 1,10,11
 273 525 273 525 292 525 c 0,12,13
 306 525 306 525 314.5 514.5 c 128,-1,14
 323 504 323 504 323 485 c 1,15,-1
 200 26 l 2,16,17
 195 12 195 12 186.5 6 c 128,-1,18
 178 0 178 0 168 0 c 0,19,20
 148 0 148 0 136 23 c 1,21,22
 105 138 105 138 75 252.5 c 128,-1,23
 45 367 45 367 13 482 c 1,24,-1
 13 489 l 2,0,1
EndSplineSet
EndChar

StartChar: W
Encoding: 87 87 58
Width: 335
GlyphClass: 2
Flags: W
LayerCount: 2
Fore
SplineSet
12 493 m 1,0,1
 15 509 15 509 24.5 517 c 128,-1,2
 34 525 34 525 45 525 c 0,3,4
 55 525 55 525 64 517.5 c 128,-1,5
 73 510 73 510 78 496 c 1,6,-1
 78 161 l 1,7,8
 92 188 92 188 106.5 214.5 c 128,-1,9
 121 241 121 241 137 268 c 0,10,11
 143 279 143 279 151 284 c 128,-1,12
 159 289 159 289 167 289 c 0,13,14
 183 289 183 289 197 271 c 2,15,-1
 258 161 l 1,16,-1
 258 491 l 2,17,18
 261 507 261 507 270.5 515 c 128,-1,19
 280 523 280 523 291 523 c 0,20,21
 301 523 301 523 310 516 c 128,-1,22
 319 509 319 509 324 494 c 1,23,-1
 324 37 l 2,24,25
 323 20 323 20 314 10 c 128,-1,26
 305 0 305 0 293 0 c 0,27,28
 277 0 277 0 264 14 c 1,29,30
 240 58 240 58 216 101 c 128,-1,31
 192 144 192 144 167 188 c 1,32,33
 144 145 144 145 120.5 102 c 128,-1,34
 97 59 97 59 73 16 c 0,35,36
 60 0 60 0 43 0 c 0,37,38
 32 0 32 0 23 8.5 c 128,-1,39
 14 17 14 17 12 34 c 2,40,-1
 12 493 l 1,41,-1
 12 493 l 1,0,1
EndSplineSet
EndChar

StartChar: X
Encoding: 88 88 59
Width: 335
GlyphClass: 2
Flags: W
LayerCount: 2
Fore
SplineSet
18 473 m 0,0,1
 13 482 13 482 13 493 c 0,2,3
 13 507 13 507 22 515.5 c 128,-1,4
 31 524 31 524 43 524 c 0,5,6
 62 524 62 524 74 506 c 0,7,8
 98 462 98 462 121.5 419 c 128,-1,9
 145 376 145 376 168 332 c 1,10,11
 191 375 191 375 214 417.5 c 128,-1,12
 237 460 237 460 260 504 c 0,13,14
 266 515 266 515 275 519.5 c 128,-1,15
 284 524 284 524 292 524 c 0,16,17
 304 524 304 524 313.5 515.5 c 128,-1,18
 323 507 323 507 323 493 c 0,19,20
 323 483 323 483 319 475 c 0,21,22
 290 421 290 421 262 368.5 c 128,-1,23
 234 316 234 316 205 262 c 1,24,-1
 320 47 l 2,25,26
 323 39 323 39 323 33 c 0,27,28
 323 18 323 18 314 9.5 c 128,-1,29
 305 1 305 1 293 1 c 0,30,31
 276 1 276 1 264 14 c 1,32,33
 240 59 240 59 216 103.5 c 128,-1,34
 192 148 192 148 168 193 c 1,35,-1
 73 16 l 2,36,37
 66 8 66 8 58.5 4.5 c 128,-1,38
 51 1 51 1 43 1 c 0,39,40
 31 1 31 1 22 10 c 128,-1,41
 13 19 13 19 13 34 c 2,42,-1
 14 45 l 1,43,-1
 131 263 l 1,44,45
 102 315 102 315 74 367.5 c 128,-1,46
 46 420 46 420 18 473 c 0,0,1
EndSplineSet
EndChar

StartChar: Y
Encoding: 89 89 60
Width: 335
GlyphClass: 2
Flags: W
LayerCount: 2
Fore
SplineSet
201 37 m 1,0,1
 200 19 200 19 190 9.5 c 128,-1,2
 180 0 180 0 168 0 c 0,3,4
 157 0 157 0 147 8.5 c 128,-1,5
 137 17 137 17 135 34 c 2,6,-1
 135 248 l 1,7,8
 105 304 105 304 76 360 c 128,-1,9
 47 416 47 416 18 473 c 0,10,11
 13 482 13 482 13 493 c 0,12,13
 13 507 13 507 22 515.5 c 128,-1,14
 31 524 31 524 43 524 c 0,15,16
 62 524 62 524 74 506 c 0,17,18
 98 461 98 461 121.5 417 c 128,-1,19
 145 373 145 373 168 328 c 1,20,21
 191 372 191 372 213.5 416 c 128,-1,22
 236 460 236 460 260 504 c 0,23,24
 266 515 266 515 275 519.5 c 128,-1,25
 284 524 284 524 292 524 c 0,26,27
 304 524 304 524 313.5 515.5 c 128,-1,28
 323 507 323 507 323 493 c 0,29,30
 323 483 323 483 319 475 c 0,31,32
 288 418 288 418 259 361.5 c 128,-1,33
 230 305 230 305 201 248 c 1,34,-1
 201 37 l 1,35,-1
 201 37 l 1,0,1
EndSplineSet
EndChar

StartChar: Z
Encoding: 90 90 61
Width: 335
GlyphClass: 2
Flags: W
LayerCount: 2
Fore
SplineSet
46 459 m 1,0,1
 29 461 29 461 20.5 471 c 128,-1,2
 12 481 12 481 12 492 c 0,3,4
 12 504 12 504 21.5 514.5 c 128,-1,5
 31 525 31 525 49 525 c 2,6,-1
 295 525 l 1,7,8
 323 516 323 516 323 493 c 0,9,10
 323 483 323 483 319 475 c 0,11,12
 264 372 264 372 209.5 270.5 c 128,-1,13
 155 169 155 169 100 66 c 1,14,-1
 295 66 l 1,15,16
 309 61 309 61 316.5 52 c 128,-1,17
 324 43 324 43 324 33 c 0,18,19
 324 22 324 22 316 12.5 c 128,-1,20
 308 3 308 3 292 0 c 2,21,-1
 46 0 l 2,22,23
 13 3 13 3 13 34 c 0,24,25
 13 41 13 41 14 45 c 2,26,-1
 236 459 l 1,27,-1
 46 459 l 1,28,-1
 46 459 l 1,0,1
EndSplineSet
EndChar

StartChar: bracketleft
Encoding: 91 91 62
Width: 335
GlyphClass: 2
Flags: W
LayerCount: 2
Fore
SplineSet
265 525 m 1,0,1
 279 520 279 520 286 511 c 128,-1,2
 293 502 293 502 293 492 c 0,3,4
 293 481 293 481 285.5 471.5 c 128,-1,5
 278 462 278 462 262 459 c 2,6,-1
 201 459 l 1,7,-1
 201 66 l 1,8,-1
 265 66 l 1,9,10
 279 61 279 61 286 52 c 128,-1,11
 293 43 293 43 293 33 c 0,12,13
 293 22 293 22 285.5 12.5 c 128,-1,14
 278 3 278 3 262 0 c 2,15,-1
 169 0 l 1,16,17
 139 4 139 4 135 34 c 1,18,-1
 135 493 l 1,19,20
 141 525 141 525 172 525 c 2,21,-1
 265 525 l 1,22,-1
 265 525 l 1,0,1
EndSplineSet
EndChar

StartChar: backslash
Encoding: 92 92 63
Width: 335
GlyphClass: 2
Flags: W
LayerCount: 2
Fore
SplineSet
18 473 m 2,0,1
 13 482 13 482 13 493 c 0,2,3
 13 507 13 507 22 515.5 c 128,-1,4
 31 524 31 524 43 524 c 0,5,6
 62 524 62 524 74 506 c 0,7,8
 198 276 198 276 320 47 c 0,9,10
 323 39 323 39 323 33 c 0,11,12
 323 18 323 18 314 9.5 c 128,-1,13
 305 1 305 1 293 1 c 0,14,15
 276 1 276 1 264 14 c 1,16,-1
 18 473 l 2,0,1
EndSplineSet
EndChar

StartChar: bracketright
Encoding: 93 93 64
Width: 335
GlyphClass: 2
Flags: W
LayerCount: 2
Fore
SplineSet
76 525 m 1,0,-1
 169 525 l 2,1,2
 200 525 200 525 206 493 c 1,3,-1
 206 34 l 1,4,5
 202 4 202 4 172 0 c 1,6,-1
 79 0 l 2,7,8
 63 3 63 3 55 12.5 c 128,-1,9
 47 22 47 22 47 33 c 0,10,11
 47 43 47 43 54.5 52 c 128,-1,12
 62 61 62 61 76 66 c 1,13,-1
 140 66 l 1,14,-1
 140 459 l 1,15,-1
 79 459 l 2,16,17
 63 462 63 462 55 471.5 c 128,-1,18
 47 481 47 481 47 492 c 0,19,20
 47 502 47 502 54.5 511 c 128,-1,21
 62 520 62 520 76 525 c 1,0,-1
EndSplineSet
EndChar

StartChar: underscore
Encoding: 95 95 65
Width: 335
GlyphClass: 2
Flags: W
LayerCount: 2
Fore
SplineSet
46 0 m 1,0,1
 29 2 29 2 20.5 12 c 128,-1,2
 12 22 12 22 12 33 c 0,3,4
 12 45 12 45 21.5 55.5 c 128,-1,5
 31 66 31 66 49 66 c 2,6,-1
 295 66 l 1,7,8
 309 61 309 61 316.5 52 c 128,-1,9
 324 43 324 43 324 33 c 0,10,11
 324 22 324 22 316 12.5 c 128,-1,12
 308 3 308 3 292 0 c 2,13,-1
 46 0 l 1,14,-1
 46 0 l 1,0,1
EndSplineSet
EndChar

StartChar: a
Encoding: 97 97 66
Width: 335
GlyphClass: 2
Flags: W
LayerCount: 2
Fore
SplineSet
306 61 m 0,0,1
 316 54 316 54 320 45.5 c 128,-1,2
 324 37 324 37 324 29 c 0,3,4
 324 17 324 17 315.5 8 c 128,-1,5
 307 -1 307 -1 293 -1 c 0,6,7
 281 -1 281 -1 269 6.5 c 128,-1,8
 257 14 257 14 249 23 c 1,9,10
 230 11 230 11 206 5 c 128,-1,11
 182 -1 182 -1 158 -1 c 0,12,13
 133 -1 133 -1 108.5 5 c 128,-1,14
 84 11 84 11 64 24 c 128,-1,15
 44 37 44 37 31.5 55.5 c 128,-1,16
 19 74 19 74 19 100 c 0,17,18
 19 127 19 127 31.5 146.5 c 128,-1,19
 44 166 44 166 64 178 c 128,-1,20
 84 190 84 190 109 196 c 128,-1,21
 134 202 134 202 159 202 c 0,22,23
 177 202 177 202 194 200.5 c 128,-1,24
 211 199 211 199 227 191 c 1,25,-1
 227 192 l 2,26,27
 227 209 227 209 220.5 218 c 128,-1,28
 214 227 214 227 204.5 231 c 128,-1,29
 195 235 195 235 183 235.5 c 128,-1,30
 171 236 171 236 161 236 c 0,31,32
 146 236 146 236 130 235 c 128,-1,33
 114 234 114 234 100 228 c 0,34,35
 97 227 97 227 89 227 c 0,36,37
 74 227 74 227 65 236 c 128,-1,38
 56 245 56 245 56 257 c 0,39,40
 56 270 56 270 63.5 278 c 128,-1,41
 71 286 71 286 81.5 290.5 c 128,-1,42
 92 295 92 295 104.5 296.5 c 128,-1,43
 117 298 117 298 128 298 c 0,44,45
 164 298 164 298 194.5 296.5 c 128,-1,46
 225 295 225 295 247.5 283 c 128,-1,47
 270 271 270 271 282.5 244.5 c 128,-1,48
 295 218 295 218 295 167 c 0,49,50
 295 148 295 148 294 131 c 128,-1,51
 293 114 293 114 293 103 c 0,52,53
 293 91 293 91 293.5 79.5 c 128,-1,54
 294 68 294 68 306 61 c 0,0,1
227 100 m 0,55,56
 225 123 225 123 203 131 c 128,-1,57
 181 139 181 139 157 139 c 0,58,59
 148 139 148 139 135.5 137 c 128,-1,60
 123 135 123 135 112 130.5 c 128,-1,61
 101 126 101 126 93 118.5 c 128,-1,62
 85 111 85 111 85 100 c 256,63,64
 85 89 85 89 93.5 82.5 c 128,-1,65
 102 76 102 76 113.5 71.5 c 128,-1,66
 125 67 125 67 137 65.5 c 128,-1,67
 149 64 149 64 157 64 c 0,68,69
 180 64 180 64 202.5 72 c 128,-1,70
 225 80 225 80 227 100 c 0,55,56
301 62 m 1,71,72
 302 62 302 62 302 61 c 1,73,74
 303 61 303 61 303 62 c 1,75,-1
 301 62 l 1,71,72
EndSplineSet
EndChar

StartChar: b
Encoding: 98 98 67
Width: 335
GlyphClass: 2
Flags: W
LayerCount: 2
Fore
SplineSet
122 5 m 0,0,1
 101 11 101 11 82 25 c 1,2,3
 78 11 78 11 69.5 4.5 c 128,-1,4
 61 -2 61 -2 50 -2 c 256,5,6
 39 -2 39 -2 29 6.5 c 128,-1,7
 19 15 19 15 17 32 c 2,8,-1
 17 451 l 1,9,10
 21 467 21 467 30 474.5 c 128,-1,11
 39 482 39 482 50 482 c 256,12,13
 61 482 61 482 69.5 475 c 128,-1,14
 78 468 78 468 83 454 c 1,15,-1
 83 260 l 1,16,17
 101 273 101 273 124 279 c 128,-1,18
 147 285 147 285 167 285 c 0,19,20
 196 285 196 285 222.5 275 c 128,-1,21
 249 265 249 265 269.5 247 c 128,-1,22
 290 229 290 229 303 203 c 128,-1,23
 316 177 316 177 317 146 c 0,24,25
 317 114 317 114 305 87 c 128,-1,26
 293 60 293 60 272.5 40 c 128,-1,27
 252 20 252 20 224.5 9 c 128,-1,28
 197 -2 197 -2 167 -2 c 0,29,30
 143 -2 143 -2 122 5 c 0,0,1
127 210 m 0,31,32
 106 200 106 200 96.5 181.5 c 128,-1,33
 87 163 87 163 83 142 c 1,34,35
 85 127 85 127 90.5 113 c 128,-1,36
 96 99 96 99 106.5 88 c 128,-1,37
 117 77 117 77 132 70.5 c 128,-1,38
 147 64 147 64 167 64 c 0,39,40
 183 64 183 64 198 69.5 c 128,-1,41
 213 75 213 75 225 85.5 c 128,-1,42
 237 96 237 96 244 110.5 c 128,-1,43
 251 125 251 125 251 143 c 0,44,45
 251 180 251 180 225.5 199 c 128,-1,46
 200 218 200 218 168 218 c 0,47,48
 157 218 157 218 147 216.5 c 128,-1,49
 137 215 137 215 127 210 c 0,31,32
EndSplineSet
EndChar

StartChar: c
Encoding: 99 99 68
Width: 335
GlyphClass: 2
Flags: W
LayerCount: 2
Fore
SplineSet
286 282 m 1,0,1
 304 270 304 270 304 251 c 0,2,3
 304 239 304 239 295 229.5 c 128,-1,4
 286 220 286 220 269 220 c 0,5,6
 263 220 263 220 254 222 c 128,-1,7
 245 224 245 224 234.5 226 c 128,-1,8
 224 228 224 228 213 230 c 128,-1,9
 202 232 202 232 193 232 c 0,10,11
 170 232 170 232 150 224.5 c 128,-1,12
 130 217 130 217 115 205 c 128,-1,13
 100 193 100 193 91.5 177.5 c 128,-1,14
 83 162 83 162 83 145 c 256,15,16
 83 128 83 128 92.5 113.5 c 128,-1,17
 102 99 102 99 117 88 c 128,-1,18
 132 77 132 77 152 71 c 128,-1,19
 172 65 172 65 193 65 c 0,20,21
 211 65 211 65 228.5 68 c 128,-1,22
 246 71 246 71 265 76 c 1,23,24
 284 76 284 76 294.5 67 c 128,-1,25
 305 58 305 58 305 44 c 0,26,27
 305 25 305 25 284 13 c 1,28,29
 261 7 261 7 238 2.5 c 128,-1,30
 215 -2 215 -2 191 -2 c 0,31,32
 156 -2 156 -2 124.5 10.5 c 128,-1,33
 93 23 93 23 69 44 c 128,-1,34
 45 65 45 65 30.5 92.5 c 128,-1,35
 16 120 16 120 16 150 c 0,36,37
 16 173 16 173 25 195.5 c 128,-1,38
 34 218 34 218 54 240 c 0,39,40
 83 271 83 271 119 283.5 c 128,-1,41
 155 296 155 296 194 296 c 0,42,43
 241 296 241 296 286 282 c 1,0,1
EndSplineSet
EndChar

StartChar: d
Encoding: 100 100 69
Width: 335
GlyphClass: 2
Flags: W
LayerCount: 2
Fore
SplineSet
317 35 m 1,0,1
 316 17 316 17 306 7.5 c 128,-1,2
 296 -2 296 -2 284 -2 c 0,3,4
 274 -2 274 -2 265 4.5 c 128,-1,5
 256 11 256 11 253 24 c 1,6,7
 213 -2 213 -2 167 -2 c 0,8,9
 119 -2 119 -2 80 25 c 128,-1,10
 41 52 41 52 25 97 c 0,11,12
 20 108 20 108 19.5 120 c 128,-1,13
 19 132 19 132 17 143 c 0,14,15
 20 171 20 171 30.5 196.5 c 128,-1,16
 41 222 41 222 60 241.5 c 128,-1,17
 79 261 79 261 105.5 273 c 128,-1,18
 132 285 132 285 167 285 c 0,19,20
 213 285 213 285 251 261 c 1,21,-1
 251 451 l 2,22,23
 254 467 254 467 263.5 474.5 c 128,-1,24
 273 482 273 482 284 482 c 0,25,26
 294 482 294 482 303 475 c 128,-1,27
 312 468 312 468 317 454 c 1,28,-1
 317 146 l 1,29,-1
 317 35 l 1,30,-1
 317 35 l 1,0,1
127 210 m 0,31,32
 106 200 106 200 96.5 181.5 c 128,-1,33
 87 163 87 163 83 142 c 1,34,35
 85 127 85 127 90.5 113 c 128,-1,36
 96 99 96 99 106.5 88 c 128,-1,37
 117 77 117 77 132 70.5 c 128,-1,38
 147 64 147 64 167 64 c 0,39,40
 183 64 183 64 198 69.5 c 128,-1,41
 213 75 213 75 224.5 85.5 c 128,-1,42
 236 96 236 96 243.5 110.5 c 128,-1,43
 251 125 251 125 251 143 c 2,44,-1
 251 148 l 2,45,46
 249 183 249 183 224 200.5 c 128,-1,47
 199 218 199 218 168 218 c 0,48,49
 157 218 157 218 147 216.5 c 128,-1,50
 137 215 137 215 127 210 c 0,31,32
EndSplineSet
EndChar

StartChar: e
Encoding: 101 101 70
Width: 335
GlyphClass: 2
Flags: W
LayerCount: 2
Fore
SplineSet
86 127 m 1,0,1
 92 102 92 102 114.5 82 c 128,-1,2
 137 62 137 62 175 62 c 0,3,4
 198 62 198 62 221 70 c 128,-1,5
 244 78 244 78 261 90 c 0,6,7
 266 92 266 92 270 93 c 128,-1,8
 274 94 274 94 278 94 c 0,9,10
 293 94 293 94 301.5 85 c 128,-1,11
 310 76 310 76 310 64 c 0,12,13
 310 47 310 47 295.5 34.5 c 128,-1,14
 281 22 281 22 260 14 c 128,-1,15
 239 6 239 6 215.5 1.5 c 128,-1,16
 192 -3 192 -3 174 -3 c 0,17,18
 137 -3 137 -3 108 10 c 128,-1,19
 79 23 79 23 59 44.5 c 128,-1,20
 39 66 39 66 28.5 93 c 128,-1,21
 18 120 18 120 18 149 c 0,22,23
 18 184 18 184 31.5 212.5 c 128,-1,24
 45 241 45 241 66.5 261.5 c 128,-1,25
 88 282 88 282 114.5 293 c 128,-1,26
 141 304 141 304 168 304 c 256,27,28
 195 304 195 304 221 294.5 c 128,-1,29
 247 285 247 285 267.5 267 c 128,-1,30
 288 249 288 249 301.5 223 c 128,-1,31
 315 197 315 197 317 164 c 0,32,33
 316 133 316 133 285 127 c 1,34,-1
 86 127 l 1,0,1
102 204 m 0,35,36
 100 201 100 201 99 198.5 c 128,-1,37
 98 196 98 196 96 193 c 1,38,-1
 242 193 l 1,39,40
 231 216 231 216 210.5 227.5 c 128,-1,41
 190 239 190 239 167 239 c 0,42,43
 148 239 148 239 131 230.5 c 128,-1,44
 114 222 114 222 102 204 c 0,35,36
EndSplineSet
EndChar

StartChar: f
Encoding: 102 102 71
Width: 335
GlyphClass: 2
Flags: W
LayerCount: 2
Fore
SplineSet
79 201 m 1,0,1
 62 203 62 203 53.5 213 c 128,-1,2
 45 223 45 223 45 234 c 0,3,4
 45 246 45 246 54.5 256 c 128,-1,5
 64 266 64 266 82 267 c 2,6,-1
 112 267 l 1,7,8
 112 296 112 296 112.5 325 c 128,-1,9
 113 354 113 354 113 383 c 0,10,11
 113 406 113 406 121.5 424 c 128,-1,12
 130 442 130 442 144 454 c 128,-1,13
 158 466 158 466 176 472.5 c 128,-1,14
 194 479 194 479 212 479 c 0,15,16
 242 479 242 479 274 460 c 0,17,18
 290 449 290 449 295.5 436.5 c 128,-1,19
 301 424 301 424 308 404 c 1,20,21
 307 386 307 386 297.5 376.5 c 128,-1,22
 288 367 288 367 275 367 c 0,23,24
 266 367 266 367 257.5 372.5 c 128,-1,25
 249 378 249 378 243 391 c 1,26,27
 241 405 241 405 230.5 409 c 128,-1,28
 220 413 220 413 212 413 c 256,29,30
 204 413 204 413 195 409 c 128,-1,31
 186 405 186 405 181 395 c 1,32,33
 180 363 180 363 179.5 331 c 128,-1,34
 179 299 179 299 179 267 c 1,35,-1
 266 267 l 1,36,37
 281 262 281 262 288 253 c 128,-1,38
 295 244 295 244 295 234 c 0,39,40
 295 223 295 223 287 213.5 c 128,-1,41
 279 204 279 204 263 201 c 2,42,-1
 179 201 l 1,43,44
 178 187 178 187 178 173.5 c 128,-1,45
 178 160 178 160 178 146 c 0,46,47
 178 118 178 118 178.5 90.5 c 128,-1,48
 179 63 179 63 179 35 c 0,49,50
 178 17 178 17 167.5 7.5 c 128,-1,51
 157 -2 157 -2 146 -2 c 256,52,53
 135 -2 135 -2 125 6.5 c 128,-1,54
 115 15 115 15 113 32 c 0,55,56
 113 74 113 74 112.5 116.5 c 128,-1,57
 112 159 112 159 112 201 c 1,58,-1
 79 201 l 1,59,-1
 79 201 l 1,0,1
EndSplineSet
EndChar

StartChar: g
Encoding: 103 103 72
Width: 335
GlyphClass: 2
Flags: W
LayerCount: 2
Fore
SplineSet
108 294 m 0,0,1
 136 303 136 303 167 303 c 0,2,3
 190 303 190 303 212 297.5 c 128,-1,4
 234 292 234 292 254 281 c 1,5,6
 259 292 259 292 267 298 c 128,-1,7
 275 304 275 304 284 304 c 0,8,9
 295 304 295 304 303.5 296.5 c 128,-1,10
 312 289 312 289 317 275 c 1,11,-1
 317 66 l 2,12,13
 317 37 317 37 302 16 c 128,-1,14
 287 -5 287 -5 263.5 -19 c 128,-1,15
 240 -33 240 -33 210.5 -40 c 128,-1,16
 181 -47 181 -47 152 -47 c 0,17,18
 132 -47 132 -47 109.5 -43 c 128,-1,19
 87 -39 87 -39 68 -31.5 c 128,-1,20
 49 -24 49 -24 36.5 -12.5 c 128,-1,21
 24 -1 24 -1 24 14 c 0,22,23
 24 27 24 27 32.5 35.5 c 128,-1,24
 41 44 41 44 55 44 c 0,25,26
 67 44 67 44 77 38 c 0,27,28
 79 36 79 36 82 34 c 0,29,30
 86 31 86 31 94 28 c 0,31,32
 108 22 108 22 125.5 21 c 128,-1,33
 143 20 143 20 163 20 c 0,34,35
 176 20 176 20 190 21.5 c 128,-1,36
 204 23 204 23 216 27.5 c 128,-1,37
 228 32 228 32 236.5 38.5 c 128,-1,38
 245 45 245 45 248 56 c 0,39,40
 252 72 252 72 254 90 c 1,41,42
 213 65 213 65 165 65 c 0,43,44
 142 65 142 65 116 73.5 c 128,-1,45
 90 82 90 82 68 97.5 c 128,-1,46
 46 113 46 113 31.5 135.5 c 128,-1,47
 17 158 17 158 17 185 c 0,48,49
 17 204 17 204 24.5 221.5 c 128,-1,50
 32 239 32 239 45 253 c 128,-1,51
 58 267 58 267 74 277.5 c 128,-1,52
 90 288 90 288 108 294 c 0,0,1
251 186 m 0,53,54
 247 214 247 214 220.5 225.5 c 128,-1,55
 194 237 194 237 166 237 c 0,56,57
 155 237 155 237 140.5 234 c 128,-1,58
 126 231 126 231 113.5 225 c 128,-1,59
 101 219 101 219 92 209 c 128,-1,60
 83 199 83 199 83 185 c 0,61,62
 84 172 84 172 93 162 c 128,-1,63
 102 152 102 152 115 145 c 128,-1,64
 128 138 128 138 142.5 134.5 c 128,-1,65
 157 131 157 131 169 131 c 256,66,67
 181 131 181 131 195 134.5 c 128,-1,68
 209 138 209 138 220.5 145 c 128,-1,69
 232 152 232 152 240.5 162.5 c 128,-1,70
 249 173 249 173 251 186 c 0,53,54
EndSplineSet
EndChar

StartChar: h
Encoding: 104 104 73
Width: 335
GlyphClass: 2
Flags: W
LayerCount: 2
Fore
SplineSet
83 35 m 1,0,1
 82 17 82 17 72 7.5 c 128,-1,2
 62 -2 62 -2 50 -2 c 0,3,4
 39 -2 39 -2 29 6.5 c 128,-1,5
 19 15 19 15 17 32 c 2,6,-1
 17 451 l 1,7,8
 21 467 21 467 30 474.5 c 128,-1,9
 39 482 39 482 50 482 c 256,10,11
 61 482 61 482 69.5 475 c 128,-1,12
 78 468 78 468 83 454 c 1,13,-1
 83 283 l 1,14,15
 122 304 122 304 167 304 c 0,16,17
 199 304 199 304 228.5 293.5 c 128,-1,18
 258 283 258 283 279 260 c 0,19,20
 305 233 305 233 312.5 198.5 c 128,-1,21
 320 164 320 164 320 128 c 0,22,23
 320 104 320 104 318.5 80.5 c 128,-1,24
 317 57 317 57 317 35 c 0,25,26
 316 17 316 17 305.5 7.5 c 128,-1,27
 295 -2 295 -2 284 -2 c 0,28,29
 270 -2 270 -2 260.5 9.5 c 128,-1,30
 251 21 251 21 251 44 c 0,31,32
 251 73 251 73 252 97 c 128,-1,33
 253 121 253 121 253 141 c 0,34,35
 253 192 253 192 229 215.5 c 128,-1,36
 205 239 205 239 164 239 c 0,37,38
 151 239 151 239 137 235 c 128,-1,39
 123 231 123 231 111 223.5 c 128,-1,40
 99 216 99 216 91 204.5 c 128,-1,41
 83 193 83 193 83 178 c 2,42,-1
 83 35 l 1,43,-1
 83 35 l 1,0,1
EndSplineSet
EndChar

StartChar: i
Encoding: 105 105 74
Width: 335
GlyphClass: 2
Flags: W
LayerCount: 2
Fore
SplineSet
120 -2 m 1,0,1
 103 0 103 0 94.5 10 c 128,-1,2
 86 20 86 20 86 31 c 0,3,4
 86 43 86 43 95 53 c 128,-1,5
 104 63 104 63 123 64 c 2,6,-1
 140 64 l 1,7,8
 140 83 140 83 139.5 106 c 128,-1,9
 139 129 139 129 139 151.5 c 128,-1,10
 139 174 139 174 138.5 195 c 128,-1,11
 138 216 138 216 138 232 c 1,12,-1
 132 232 l 2,13,14
 115 234 115 234 106.5 244 c 128,-1,15
 98 254 98 254 98 265 c 0,16,17
 98 298 98 298 155 298 c 0,18,19
 179 298 179 298 193 287 c 128,-1,20
 207 276 207 276 207 257 c 2,21,-1
 207 64 l 1,22,-1
 240 64 l 1,23,24
 254 59 254 59 261.5 50 c 128,-1,25
 269 41 269 41 269 31 c 0,26,27
 269 20 269 20 261 10.5 c 128,-1,28
 253 1 253 1 237 -2 c 2,29,-1
 120 -2 l 1,30,-1
 120 -2 l 1,0,1
141 401 m 1,31,32
 144 417 144 417 153.5 425 c 128,-1,33
 163 433 163 433 174 433 c 0,34,35
 184 433 184 433 193 426 c 128,-1,36
 202 419 202 419 207 404 c 1,37,-1
 207 398 l 2,38,39
 206 380 206 380 196 370.5 c 128,-1,40
 186 361 186 361 174 361 c 0,41,42
 163 361 163 361 153 369.5 c 128,-1,43
 143 378 143 378 141 395 c 2,44,-1
 141 401 l 1,45,-1
 141 401 l 1,31,32
EndSplineSet
EndChar

StartChar: j
Encoding: 106 106 75
Width: 335
GlyphClass: 2
Flags: W
LayerCount: 2
Fore
SplineSet
251 272 m 0,0,1
 254 288 254 288 263.5 296 c 128,-1,2
 273 304 273 304 284 304 c 0,3,4
 294 304 294 304 303 296.5 c 128,-1,5
 312 289 312 289 317 275 c 1,6,-1
 317 66 l 2,7,8
 317 37 317 37 302 16 c 128,-1,9
 287 -5 287 -5 263.5 -19 c 128,-1,10
 240 -33 240 -33 210.5 -40 c 128,-1,11
 181 -47 181 -47 152 -47 c 0,12,13
 132 -47 132 -47 109.5 -43 c 128,-1,14
 87 -39 87 -39 68 -31.5 c 128,-1,15
 49 -24 49 -24 36.5 -12.5 c 128,-1,16
 24 -1 24 -1 24 14 c 0,17,18
 24 27 24 27 32.5 35.5 c 128,-1,19
 41 44 41 44 55 44 c 0,20,21
 61 44 61 44 63 43.5 c 128,-1,22
 65 43 65 43 68 41 c 128,-1,23
 71 39 71 39 76.5 36 c 128,-1,24
 82 33 82 33 94 28 c 0,25,26
 108 22 108 22 126.5 21 c 128,-1,27
 145 20 145 20 165 20 c 0,28,29
 188 20 188 20 210 26 c 128,-1,30
 232 32 232 32 242 52 c 0,31,32
 249 66 249 66 250.5 89 c 128,-1,33
 252 112 252 112 252 141 c 0,34,35
 252 173 252 173 251.5 208 c 128,-1,36
 251 243 251 243 251 272 c 0,0,1
250 401 m 1,37,38
 253 417 253 417 262.5 425 c 128,-1,39
 272 433 272 433 283 433 c 0,40,41
 293 433 293 433 302 426 c 128,-1,42
 311 419 311 419 316 404 c 1,43,-1
 316 398 l 2,44,45
 314 380 314 380 304 370.5 c 128,-1,46
 294 361 294 361 283 361 c 256,47,48
 272 361 272 361 262 369.5 c 128,-1,49
 252 378 252 378 250 395 c 2,50,-1
 250 401 l 1,51,-1
 250 401 l 1,37,38
EndSplineSet
EndChar

StartChar: k
Encoding: 107 107 76
Width: 335
GlyphClass: 2
Flags: W
LayerCount: 2
Fore
SplineSet
83 35 m 1,0,1
 82 17 82 17 72 7.5 c 128,-1,2
 62 -2 62 -2 50 -2 c 0,3,4
 39 -2 39 -2 29 6.5 c 128,-1,5
 19 15 19 15 17 32 c 2,6,-1
 17 451 l 1,7,8
 21 467 21 467 30 474.5 c 128,-1,9
 39 482 39 482 50 482 c 256,10,11
 61 482 61 482 69.5 475 c 128,-1,12
 78 468 78 468 83 454 c 1,13,-1
 83 197 l 1,14,15
 130 223 130 223 175 248 c 128,-1,16
 220 273 220 273 267 299 c 0,17,18
 275 303 275 303 284 303 c 0,19,20
 299 303 299 303 307.5 293.5 c 128,-1,21
 316 284 316 284 316 272 c 0,22,23
 316 264 316 264 311.5 255.5 c 128,-1,24
 307 247 307 247 296 241 c 0,25,26
 291 238 291 238 274 228.5 c 128,-1,27
 257 219 257 219 237 208 c 128,-1,28
 217 197 217 197 200 187.5 c 128,-1,29
 183 178 183 178 178 175 c 1,30,31
 210 145 210 145 242 114.5 c 128,-1,32
 274 84 274 84 307 55 c 1,33,34
 316 41 316 41 316 29 c 0,35,36
 316 16 316 16 307.5 7.5 c 128,-1,37
 299 -1 299 -1 285 -1 c 0,38,39
 277 -1 277 -1 265 4 c 1,40,41
 227 39 227 39 190.5 72.5 c 128,-1,42
 154 106 154 106 116 141 c 1,43,44
 108 136 108 136 99.5 131.5 c 128,-1,45
 91 127 91 127 83 122 c 1,46,-1
 83 35 l 1,47,-1
 83 35 l 1,0,1
EndSplineSet
EndChar

StartChar: l
Encoding: 108 108 77
Width: 335
GlyphClass: 2
Flags: W
LayerCount: 2
Fore
SplineSet
122 -2 m 1,0,1
 104 0 104 0 96 10 c 128,-1,2
 88 20 88 20 88 31 c 0,3,4
 88 43 88 43 97 53 c 128,-1,5
 106 63 106 63 125 64 c 2,6,-1
 143 64 l 1,7,-1
 143 416 l 1,8,-1
 134 416 l 2,9,10
 116 418 116 418 108 428 c 128,-1,11
 100 438 100 438 100 449 c 0,12,13
 100 461 100 461 109 471 c 128,-1,14
 118 481 118 481 137 482 c 0,15,16
 150 482 150 482 163 481.5 c 128,-1,17
 176 481 176 481 186.5 476.5 c 128,-1,18
 197 472 197 472 203 462.5 c 128,-1,19
 209 453 209 453 209 435 c 2,20,-1
 209 64 l 1,21,-1
 242 64 l 1,22,23
 256 59 256 59 263.5 50 c 128,-1,24
 271 41 271 41 271 31 c 0,25,26
 271 20 271 20 263 10.5 c 128,-1,27
 255 1 255 1 239 -2 c 2,28,-1
 122 -2 l 1,29,-1
 122 -2 l 1,0,1
EndSplineSet
EndChar

StartChar: m
Encoding: 109 109 78
Width: 335
GlyphClass: 2
Flags: W
LayerCount: 2
Fore
SplineSet
83 35 m 1,0,1
 82 16 82 16 72 7 c 128,-1,2
 62 -2 62 -2 50 -2 c 0,3,4
 39 -2 39 -2 29 6 c 128,-1,5
 19 14 19 14 17 32 c 2,6,-1
 17 272 l 1,7,8
 21 288 21 288 30 296 c 128,-1,9
 39 304 39 304 50 304 c 0,10,11
 62 304 62 304 71 295 c 1,12,13
 88 302 88 302 109 302 c 0,14,15
 143 302 143 302 167 284 c 1,16,17
 192 302 192 302 226 302 c 0,18,19
 254 302 254 302 271.5 294.5 c 128,-1,20
 289 287 289 287 299 273 c 128,-1,21
 309 259 309 259 312.5 239.5 c 128,-1,22
 316 220 316 220 316 196 c 0,23,24
 316 177 316 177 316.5 152.5 c 128,-1,25
 317 128 317 128 317 104.5 c 128,-1,26
 317 81 317 81 317 61.5 c 128,-1,27
 317 42 317 42 317 35 c 0,28,29
 317 16 317 16 306 7 c 128,-1,30
 295 -2 295 -2 284 -2 c 256,31,32
 273 -2 273 -2 263 6 c 128,-1,33
 253 14 253 14 251 32 c 2,34,-1
 251 211 l 2,35,36
 251 224 251 224 243 230.5 c 128,-1,37
 235 237 235 237 225.5 237 c 128,-1,38
 216 237 216 237 208.5 230.5 c 128,-1,39
 201 224 201 224 201 212 c 0,40,41
 201 194 201 194 201 166.5 c 128,-1,42
 201 139 201 139 201 112 c 128,-1,43
 201 85 201 85 200.5 63.5 c 128,-1,44
 200 42 200 42 200 35 c 0,45,46
 200 16 200 16 189 7 c 128,-1,47
 178 -2 178 -2 167 -2 c 256,48,49
 156 -2 156 -2 146 6 c 128,-1,50
 136 14 136 14 134 32 c 2,51,-1
 134 214 l 2,52,53
 134 226 134 226 126 231.5 c 128,-1,54
 118 237 118 237 108.5 236.5 c 128,-1,55
 99 236 99 236 91 230 c 128,-1,56
 83 224 83 224 83 214 c 2,57,-1
 83 35 l 1,58,-1
 83 35 l 1,0,1
EndSplineSet
EndChar

StartChar: n
Encoding: 110 110 79
Width: 335
GlyphClass: 2
Flags: W
LayerCount: 2
Fore
SplineSet
83 35 m 1,0,1
 82 17 82 17 72 7.5 c 128,-1,2
 62 -2 62 -2 50 -2 c 0,3,4
 39 -2 39 -2 29 6.5 c 128,-1,5
 19 15 19 15 17 32 c 2,6,-1
 17 266 l 1,7,8
 21 282 21 282 30 290 c 128,-1,9
 39 298 39 298 50 298 c 0,10,11
 69 298 69 298 80 277 c 1,12,13
 100 287 100 287 124 292.5 c 128,-1,14
 148 298 148 298 172 298 c 0,15,16
 204 298 204 298 233.5 289 c 128,-1,17
 263 280 263 280 284 260 c 0,18,19
 301 246 301 246 308.5 228 c 128,-1,20
 316 210 316 210 316 175 c 0,21,22
 316 161 316 161 316 142.5 c 128,-1,23
 316 124 316 124 316.5 104.5 c 128,-1,24
 317 85 317 85 317 66.5 c 128,-1,25
 317 48 317 48 317 35 c 0,26,27
 316 17 316 17 305.5 7.5 c 128,-1,28
 295 -2 295 -2 284 -2 c 256,29,30
 273 -2 273 -2 263 6.5 c 128,-1,31
 253 15 253 15 251 32 c 2,32,-1
 251 186 l 2,33,34
 251 209 251 209 227 220.5 c 128,-1,35
 203 232 203 232 174 232 c 0,36,37
 159 232 159 232 143 229 c 128,-1,38
 127 226 127 226 113.5 220 c 128,-1,39
 100 214 100 214 91.5 205 c 128,-1,40
 83 196 83 196 83 184 c 2,41,-1
 83 35 l 1,42,-1
 83 35 l 1,0,1
EndSplineSet
EndChar

StartChar: o
Encoding: 111 111 80
Width: 335
GlyphClass: 2
Flags: W
LayerCount: 2
Fore
SplineSet
316 148 m 2,0,1
 314 111 314 111 300 83 c 128,-1,2
 286 55 286 55 265.5 36 c 128,-1,3
 245 17 245 17 220.5 7.5 c 128,-1,4
 196 -2 196 -2 172 -2 c 0,5,6
 143 -2 143 -2 115 9.5 c 128,-1,7
 87 21 87 21 65 41.5 c 128,-1,8
 43 62 43 62 30 91 c 128,-1,9
 17 120 17 120 17 155 c 0,10,11
 17 189 17 189 30 217.5 c 128,-1,12
 43 246 43 246 65 266.5 c 128,-1,13
 87 287 87 287 115 298.5 c 128,-1,14
 143 310 143 310 172 310 c 0,15,16
 199 310 199 310 224.5 299 c 128,-1,17
 250 288 250 288 269.5 267.5 c 128,-1,18
 289 247 289 247 302 219 c 128,-1,19
 315 191 315 191 317 158 c 1,20,-1
 316 148 l 2,0,1
251 155 m 0,21,22
 250 171 250 171 244.5 187 c 128,-1,23
 239 203 239 203 229 215.5 c 128,-1,24
 219 228 219 228 204.5 235.5 c 128,-1,25
 190 243 190 243 170 243 c 0,26,27
 136 243 136 243 109.5 218.5 c 128,-1,28
 83 194 83 194 83 157 c 0,29,30
 83 139 83 139 89.5 122.5 c 128,-1,31
 96 106 96 106 107 93 c 128,-1,32
 118 80 118 80 133.5 72 c 128,-1,33
 149 64 149 64 167 64 c 0,34,35
 189 64 189 64 205 72.5 c 128,-1,36
 221 81 221 81 230.5 94.5 c 128,-1,37
 240 108 240 108 245 124 c 128,-1,38
 250 140 250 140 251 155 c 0,21,22
EndSplineSet
EndChar

StartChar: p
Encoding: 112 112 81
Width: 335
GlyphClass: 2
Flags: W
LayerCount: 2
Fore
SplineSet
83 -13 m 1,0,1
 82 -32 82 -32 72 -41 c 128,-1,2
 62 -50 62 -50 50 -50 c 0,3,4
 39 -50 39 -50 29 -42 c 128,-1,5
 19 -34 19 -34 17 -16 c 2,6,-1
 17 266 l 1,7,8
 21 282 21 282 30 290 c 128,-1,9
 39 298 39 298 50 298 c 0,10,11
 59 298 59 298 67 293 c 128,-1,12
 75 288 75 288 80 277 c 1,13,14
 100 288 100 288 123.5 293 c 128,-1,15
 147 298 147 298 170 298 c 0,16,17
 194 298 194 298 220 290.5 c 128,-1,18
 246 283 246 283 267 269 c 128,-1,19
 288 255 288 255 302 233.5 c 128,-1,20
 316 212 316 212 317 184 c 0,21,22
 317 154 317 154 304 130 c 128,-1,23
 291 106 291 106 270 89 c 128,-1,24
 249 72 249 72 222.5 63 c 128,-1,25
 196 54 196 54 169 54 c 0,26,27
 125 54 125 54 83 76 c 1,28,-1
 83 -13 l 1,29,-1
 83 -13 l 1,0,1
86 193 m 0,30,31
 85 190 85 190 83 182 c 0,32,33
 85 166 85 166 93.5 154.5 c 128,-1,34
 102 143 102 143 115 135.5 c 128,-1,35
 128 128 128 128 143 124.5 c 128,-1,36
 158 121 158 121 173 121 c 0,37,38
 202 121 202 121 226.5 135.5 c 128,-1,39
 251 150 251 150 251 181 c 0,40,41
 251 197 251 197 240.5 207 c 128,-1,42
 230 217 230 217 216 222.5 c 128,-1,43
 202 228 202 228 188 230 c 128,-1,44
 174 232 174 232 167 232 c 0,45,46
 143 232 143 232 120 223 c 128,-1,47
 97 214 97 214 86 193 c 0,30,31
EndSplineSet
EndChar

StartChar: q
Encoding: 113 113 82
Width: 335
GlyphClass: 2
Flags: W
LayerCount: 2
Fore
SplineSet
317 -13 m 1,0,1
 316 -32 316 -32 305.5 -41 c 128,-1,2
 295 -50 295 -50 284 -50 c 256,3,4
 273 -50 273 -50 263 -42 c 128,-1,5
 253 -34 253 -34 251 -16 c 2,6,-1
 251 76 l 1,7,8
 212 54 212 54 169 54 c 0,9,10
 148 54 148 54 125.5 59.5 c 128,-1,11
 103 65 103 65 83.5 76.5 c 128,-1,12
 64 88 64 88 48.5 104 c 128,-1,13
 33 120 33 120 25 141 c 0,14,15
 21 151 21 151 20 160.5 c 128,-1,16
 19 170 19 170 17 181 c 0,17,18
 19 191 19 191 20 200.5 c 128,-1,19
 21 210 21 210 26 219 c 0,20,21
 35 239 35 239 50 254 c 128,-1,22
 65 269 65 269 84.5 278.5 c 128,-1,23
 104 288 104 288 126 293 c 128,-1,24
 148 298 148 298 169 298 c 0,25,26
 192 298 192 298 213 293 c 128,-1,27
 234 288 234 288 254 277 c 1,28,29
 259 288 259 288 267 293 c 128,-1,30
 275 298 275 298 284 298 c 0,31,32
 294 298 294 298 303 291 c 128,-1,33
 312 284 312 284 317 269 c 1,34,-1
 317 -13 l 1,35,-1
 317 -13 l 1,0,1
86 193 m 0,36,37
 85 190 85 190 83 182 c 0,38,39
 85 166 85 166 93.5 154.5 c 128,-1,40
 102 143 102 143 115 135.5 c 128,-1,41
 128 128 128 128 143 124.5 c 128,-1,42
 158 121 158 121 173 121 c 0,43,44
 202 121 202 121 226.5 135.5 c 128,-1,45
 251 150 251 150 251 181 c 0,46,47
 251 197 251 197 240.5 207 c 128,-1,48
 230 217 230 217 216 222.5 c 128,-1,49
 202 228 202 228 188 230 c 128,-1,50
 174 232 174 232 167 232 c 0,51,52
 143 232 143 232 120 223 c 128,-1,53
 97 214 97 214 86 193 c 0,36,37
EndSplineSet
EndChar

StartChar: r
Encoding: 114 114 83
Width: 335
GlyphClass: 2
Flags: W
LayerCount: 2
Fore
SplineSet
83 34 m 1,0,1
 82 16 82 16 72 7 c 128,-1,2
 62 -2 62 -2 50 -2 c 0,3,4
 39 -2 39 -2 29 6 c 128,-1,5
 19 14 19 14 17 31 c 2,6,-1
 17 262 l 1,7,8
 21 278 21 278 30 285.5 c 128,-1,9
 39 293 39 293 50 293 c 0,10,11
 58 293 58 293 66 288.5 c 128,-1,12
 74 284 74 284 79 274 c 1,13,14
 99 285 99 285 121.5 292 c 128,-1,15
 144 299 144 299 165 299 c 0,16,17
 184 299 184 299 203.5 293 c 128,-1,18
 223 287 223 287 241 280 c 0,19,20
 252 275 252 275 265 268 c 128,-1,21
 278 261 278 261 289.5 252 c 128,-1,22
 301 243 301 243 308.5 231.5 c 128,-1,23
 316 220 316 220 316 207 c 0,24,25
 316 193 316 193 307 184.5 c 128,-1,26
 298 176 298 176 286 176 c 0,27,28
 269 176 269 176 257 189 c 0,29,30
 251 198 251 198 241 206.5 c 128,-1,31
 231 215 231 215 218.5 221.5 c 128,-1,32
 206 228 206 228 192.5 231.5 c 128,-1,33
 179 235 179 235 167 235 c 0,34,35
 144 235 144 235 121 224.5 c 128,-1,36
 98 214 98 214 83 197 c 1,37,-1
 83 34 l 1,38,-1
 83 34 l 1,0,1
EndSplineSet
EndChar

StartChar: s
Encoding: 115 115 84
Width: 335
GlyphClass: 2
Flags: W
LayerCount: 2
Fore
SplineSet
37 25 m 0,0,1
 23 38 23 38 23 53 c 0,2,3
 23 66 23 66 32 74.5 c 128,-1,4
 41 83 41 83 56 83 c 0,5,6
 60 83 60 83 70 81 c 0,7,8
 87 70 87 70 107.5 66 c 128,-1,9
 128 62 128 62 149 62 c 0,10,11
 164 62 164 62 182 63 c 128,-1,12
 200 64 200 64 216 68 c 128,-1,13
 232 72 232 72 243 78.5 c 128,-1,14
 254 85 254 85 254 96 c 256,15,16
 254 107 254 107 245 116.5 c 128,-1,17
 236 126 236 126 211 126 c 0,18,19
 200 126 200 126 188.5 125 c 128,-1,20
 177 124 177 124 172 124 c 0,21,22
 153 124 153 124 132.5 125.5 c 128,-1,23
 112 127 112 127 93 133 c 128,-1,24
 74 139 74 139 58 150 c 128,-1,25
 42 161 42 161 33 181 c 0,26,27
 25 197 25 197 25 214 c 0,28,29
 25 239 25 239 40.5 256 c 128,-1,30
 56 273 56 273 79 283.5 c 128,-1,31
 102 294 102 294 130 299 c 128,-1,32
 158 304 158 304 184 304 c 0,33,34
 202 304 202 304 222 302.5 c 128,-1,35
 242 301 242 301 259 296.5 c 128,-1,36
 276 292 276 292 287 283 c 128,-1,37
 298 274 298 274 298 259 c 0,38,39
 298 247 298 247 288.5 238 c 128,-1,40
 279 229 279 229 262 229 c 2,41,-1
 256 229 l 1,42,43
 226 238 226 238 189 238 c 0,44,45
 163 238 163 238 137 232.5 c 128,-1,46
 111 227 111 227 91 214 c 1,47,-1
 91 210 l 2,48,49
 91 209 91 209 92 208 c 0,50,51
 108 196 108 196 125 192 c 128,-1,52
 142 188 142 188 160 188 c 0,53,54
 174 188 174 188 188.5 189.5 c 128,-1,55
 203 191 203 191 217 191 c 0,56,57
 241 191 241 191 265.5 181.5 c 128,-1,58
 290 172 290 172 309 140 c 0,59,60
 314 130 314 130 317 118.5 c 128,-1,61
 320 107 320 107 320 98 c 0,62,63
 320 70 320 70 308 50.5 c 128,-1,64
 296 31 296 31 274 19 c 128,-1,65
 252 7 252 7 222.5 2 c 128,-1,66
 193 -3 193 -3 159 -3 c 0,67,68
 120 -3 120 -3 91.5 3 c 128,-1,69
 63 9 63 9 37 25 c 0,0,1
EndSplineSet
EndChar

StartChar: t
Encoding: 116 116 85
Width: 335
GlyphClass: 2
Flags: W
LayerCount: 2
Fore
SplineSet
79 259 m 1,0,1
 61 261 61 261 53 271 c 128,-1,2
 45 281 45 281 45 292 c 0,3,4
 45 304 45 304 54 314 c 128,-1,5
 63 324 63 324 82 325 c 2,6,-1
 112 325 l 1,7,-1
 112 404 l 1,8,9
 116 420 116 420 125 428 c 128,-1,10
 134 436 134 436 145 436 c 256,11,12
 156 436 156 436 164.5 428.5 c 128,-1,13
 173 421 173 421 178 407 c 1,14,-1
 178 325 l 1,15,-1
 266 325 l 1,16,17
 280 320 280 320 287.5 311 c 128,-1,18
 295 302 295 302 295 292 c 0,19,20
 295 281 295 281 287 271.5 c 128,-1,21
 279 262 279 262 263 259 c 2,22,-1
 180 259 l 1,23,-1
 180 81 l 1,24,-1
 184 75 l 1,25,26
 198 64 198 64 214 64 c 0,27,28
 222 64 222 64 227.5 65.5 c 128,-1,29
 233 67 233 67 241 73 c 1,30,31
 244 89 244 89 255.5 96.5 c 128,-1,32
 267 104 267 104 276 104 c 0,33,34
 289 104 289 104 298 93.5 c 128,-1,35
 307 83 307 83 307 64 c 1,36,37
 296 32 296 32 274 15.5 c 128,-1,38
 252 -1 252 -1 215 -1 c 0,39,40
 171 -1 171 -1 141.5 23.5 c 128,-1,41
 112 48 112 48 112 90 c 2,42,-1
 112 259 l 1,43,-1
 79 259 l 1,44,-1
 79 259 l 1,0,1
EndSplineSet
EndChar

StartChar: u
Encoding: 117 117 86
Width: 335
GlyphClass: 2
Flags: W
LayerCount: 2
Fore
SplineSet
17 266 m 1,0,1
 21 282 21 282 30 290 c 128,-1,2
 39 298 39 298 50 298 c 256,3,4
 61 298 61 298 69.5 290.5 c 128,-1,5
 78 283 78 283 83 269 c 1,6,-1
 83 166 l 1,7,-1
 83 115 l 2,8,9
 83 88 83 88 108.5 76 c 128,-1,10
 134 64 134 64 169 64 c 256,11,12
 204 64 204 64 225 76.5 c 128,-1,13
 246 89 246 89 251 118 c 1,14,-1
 251 266 l 2,15,16
 254 282 254 282 263.5 290 c 128,-1,17
 273 298 273 298 284 298 c 0,18,19
 294 298 294 298 303 290.5 c 128,-1,20
 312 283 312 283 317 269 c 1,21,-1
 317 35 l 2,22,23
 316 17 316 17 305.5 7.5 c 128,-1,24
 295 -2 295 -2 284 -2 c 0,25,26
 275 -2 275 -2 267 3 c 128,-1,27
 259 8 259 8 254 19 c 1,28,29
 234 8 234 8 211 3 c 128,-1,30
 188 -2 188 -2 164 -2 c 0,31,32
 133 -2 133 -2 104 6.5 c 128,-1,33
 75 15 75 15 55 32 c 0,34,35
 43 42 43 42 35.5 51.5 c 128,-1,36
 28 61 28 61 24 72 c 128,-1,37
 20 83 20 83 18.5 96.5 c 128,-1,38
 17 110 17 110 17 128 c 2,39,-1
 17 266 l 1,40,-1
 17 266 l 1,0,1
EndSplineSet
EndChar

StartChar: v
Encoding: 118 118 87
Width: 335
GlyphClass: 2
Flags: W
LayerCount: 2
Fore
SplineSet
18 258 m 0,0,1
 17 260 17 260 17 264 c 0,2,3
 17 280 17 280 26 289.5 c 128,-1,4
 35 299 35 299 48 299 c 0,5,6
 65 299 65 299 79 281 c 1,7,8
 101 236 101 236 122.5 192.5 c 128,-1,9
 144 149 144 149 166 105 c 1,10,11
 189 149 189 149 210 191.5 c 128,-1,12
 231 234 231 234 253 278 c 0,13,14
 266 299 266 299 285 299 c 0,15,16
 297 299 297 299 306.5 290.5 c 128,-1,17
 316 282 316 282 316 268 c 0,18,19
 316 263 316 263 315 259 c 128,-1,20
 314 255 314 255 312 250 c 0,21,22
 283 191 283 191 254 132 c 128,-1,23
 225 73 225 73 196 14 c 1,24,25
 182 -2 182 -2 165 -2 c 0,26,27
 145 -2 145 -2 135 22 c 0,28,29
 106 81 106 81 76.5 139.5 c 128,-1,30
 47 198 47 198 18 258 c 0,0,1
EndSplineSet
EndChar

StartChar: w
Encoding: 119 119 88
Width: 335
GlyphClass: 2
Flags: W
LayerCount: 2
Fore
SplineSet
19 252 m 0,0,1
 18 255 18 255 18 259 c 0,2,3
 18 278 18 278 28 288 c 128,-1,4
 38 298 38 298 50 298 c 0,5,6
 61 298 61 298 69.5 290.5 c 128,-1,7
 78 283 78 283 83 266 c 0,8,9
 89 234 89 234 94 200 c 128,-1,10
 99 166 99 166 104 133 c 1,11,12
 110 144 110 144 117 157.5 c 128,-1,13
 124 171 124 171 131.5 183 c 128,-1,14
 139 195 139 195 148 203 c 128,-1,15
 157 211 157 211 167 211 c 256,16,17
 177 211 177 211 185.5 203 c 128,-1,18
 194 195 194 195 202 183.5 c 128,-1,19
 210 172 210 172 217 158.5 c 128,-1,20
 224 145 224 145 230 134 c 1,21,22
 235 166 235 166 240.5 198.5 c 128,-1,23
 246 231 246 231 251 263 c 0,24,25
 254 281 254 281 263.5 289.5 c 128,-1,26
 273 298 273 298 284 298 c 0,27,28
 297 298 297 298 306.5 287 c 128,-1,29
 316 276 316 276 316 256 c 0,30,31
 298 140 298 140 280 28 c 1,32,33
 269 -1 269 -1 248 -1 c 0,34,35
 233 -1 233 -1 220 14 c 1,36,37
 207 38 207 38 194 61 c 128,-1,38
 181 84 181 84 167 108 c 1,39,40
 159 94 159 94 149.5 75 c 128,-1,41
 140 56 140 56 129.5 39 c 128,-1,42
 119 22 119 22 108 10.5 c 128,-1,43
 97 -1 97 -1 86 -1 c 0,44,45
 66 -1 66 -1 55 25 c 1,46,47
 46 82 46 82 37 138.5 c 128,-1,48
 28 195 28 195 19 252 c 0,0,1
EndSplineSet
EndChar

StartChar: x
Encoding: 120 120 89
Width: 335
GlyphClass: 2
Flags: W
LayerCount: 2
Fore
SplineSet
31 241 m 1,0,1
 18 254 18 254 18 270 c 0,2,3
 18 283 18 283 26.5 291.5 c 128,-1,4
 35 300 35 300 49 300 c 0,5,6
 62 300 62 300 74 292 c 2,7,-1
 167 197 l 1,8,-1
 259 290 l 2,9,10
 273 301 273 301 285 301 c 0,11,12
 298 301 298 301 307 292 c 128,-1,13
 316 283 316 283 316 270 c 0,14,15
 316 254 316 254 305 242 c 2,16,-1
 214 150 l 1,17,-1
 307 56 l 2,18,19
 316 42 316 42 316 29 c 256,20,21
 316 16 316 16 307 7.5 c 128,-1,22
 298 -1 298 -1 286 -1 c 0,23,24
 270 -1 270 -1 257 12 c 2,25,-1
 167 102 l 1,26,27
 143 79 143 79 119 55 c 128,-1,28
 95 31 95 31 72 6 c 0,29,30
 61 -1 61 -1 49 -1 c 0,31,32
 35 -1 35 -1 26.5 7.5 c 128,-1,33
 18 16 18 16 18 30 c 0,34,35
 18 41 18 41 25 54 c 1,36,37
 49 77 49 77 73 101.5 c 128,-1,38
 97 126 97 126 121 150 c 1,39,-1
 31 241 l 1,40,-1
 31 241 l 1,0,1
EndSplineSet
EndChar

StartChar: y
Encoding: 121 121 90
Width: 335
GlyphClass: 2
Flags: W
LayerCount: 2
Fore
SplineSet
23 250 m 0,0,1
 19 259 19 259 19 270 c 0,2,3
 19 284 19 284 27 292.5 c 128,-1,4
 35 301 35 301 49 301 c 0,5,6
 60 301 60 301 74 292 c 1,7,-1
 167 184 l 1,8,9
 190 210 190 210 213 237 c 128,-1,10
 236 264 236 264 259 290 c 0,11,12
 271 301 271 301 285 301 c 0,13,14
 298 301 298 301 307 292 c 128,-1,15
 316 283 316 283 316 270 c 0,16,17
 316 264 316 264 313.5 257 c 128,-1,18
 311 250 311 250 305 244 c 0,19,20
 300 239 300 239 284 220 c 128,-1,21
 268 201 268 201 250 180 c 128,-1,22
 232 159 232 159 216 140 c 128,-1,23
 200 121 200 121 196 116 c 0,24,25
 194 113 194 113 191.5 110.5 c 128,-1,26
 189 108 189 108 187 106 c 0,27,28
 158 73 158 73 129.5 39.5 c 128,-1,29
 101 6 101 6 72 -27 c 0,30,31
 61 -34 61 -34 49 -34 c 0,32,33
 35 -34 35 -34 26.5 -25.5 c 128,-1,34
 18 -17 18 -17 18 -3 c 0,35,36
 18 7 18 7 25 20 c 0,37,38
 50 49 50 49 74.5 76.5 c 128,-1,39
 99 104 99 104 123 133 c 1,40,41
 98 162 98 162 73 191.5 c 128,-1,42
 48 221 48 221 23 250 c 0,0,1
EndSplineSet
EndChar

StartChar: z
Encoding: 122 122 91
Width: 335
GlyphClass: 2
Flags: W
LayerCount: 2
Fore
SplineSet
288 64 m 1,0,1
 302 59 302 59 309.5 50 c 128,-1,2
 317 41 317 41 317 31 c 0,3,4
 317 20 317 20 309 10.5 c 128,-1,5
 301 1 301 1 285 -2 c 2,6,-1
 52 -2 l 1,7,8
 18 3 18 3 18 29 c 0,9,10
 18 40 18 40 25 53 c 1,11,12
 70 99 70 99 115 144.5 c 128,-1,13
 160 190 160 190 206 236 c 1,14,-1
 52 236 l 2,15,16
 34 238 34 238 25.5 248 c 128,-1,17
 17 258 17 258 17 269 c 256,18,19
 17 280 17 280 26.5 291 c 128,-1,20
 36 302 36 302 55 302 c 2,21,-1
 289 302 l 1,22,23
 317 294 317 294 317 271 c 0,24,25
 317 258 317 258 306 244 c 0,26,27
 261 199 261 199 217 154 c 128,-1,28
 173 109 173 109 128 64 c 1,29,-1
 288 64 l 1,30,-1
 288 64 l 1,0,1
EndSplineSet
EndChar

StartChar: exclamdown
Encoding: 161 161 92
Width: 335
GlyphClass: 2
Flags: W
LayerCount: 2
Fore
SplineSet
149 396 m 2,0,1
 163 407 163 407 175 407 c 0,2,3
 189 407 189 407 197.5 398 c 128,-1,4
 206 389 206 389 206 376 c 0,5,6
 206 366 206 366 198 355.5 c 128,-1,7
 190 345 190 345 179 334.5 c 128,-1,8
 168 324 168 324 155.5 314 c 128,-1,9
 143 304 143 304 133 296 c 1,10,-1
 295 296 l 1,11,12
 309 291 309 291 316.5 282 c 128,-1,13
 324 273 324 273 324 263 c 0,14,15
 324 252 324 252 316 242.5 c 128,-1,16
 308 233 308 233 292 230 c 2,17,-1
 133 230 l 1,18,19
 143 221 143 221 155.5 211 c 128,-1,20
 168 201 168 201 179 190.5 c 128,-1,21
 190 180 190 180 198 169 c 128,-1,22
 206 158 206 158 206 148 c 0,23,24
 206 135 206 135 197.5 126.5 c 128,-1,25
 189 118 189 118 175 118 c 0,26,27
 164 118 164 118 155 123 c 0,28,29
 123 152 123 152 90.5 180 c 128,-1,30
 58 208 58 208 26 236 c 0,31,32
 13 249 13 249 13 263 c 0,33,34
 13 274 13 274 20 284 c 2,35,-1
 149 396 l 2,0,1
EndSplineSet
EndChar

StartChar: cent
Encoding: 162 162 93
Width: 335
GlyphClass: 2
Flags: W
LayerCount: 2
Fore
SplineSet
316 282 m 2,0,1
 323 271 323 271 323 260 c 0,2,3
 323 246 323 246 310 233 c 2,4,-1
 181 121 l 2,5,6
 172 116 172 116 161 116 c 0,7,8
 147 116 147 116 138.5 124 c 128,-1,9
 130 132 130 132 130 146 c 0,10,11
 130 156 130 156 137.5 166.5 c 128,-1,12
 145 177 145 177 156.5 187.5 c 128,-1,13
 168 198 168 198 180.5 208 c 128,-1,14
 193 218 193 218 203 227 c 1,15,-1
 44 227 l 1,16,17
 28 231 28 231 20 240 c 128,-1,18
 12 249 12 249 12 260 c 256,19,20
 12 271 12 271 19.5 279.5 c 128,-1,21
 27 288 27 288 41 293 c 1,22,-1
 203 293 l 1,23,24
 193 302 193 302 180.5 311.5 c 128,-1,25
 168 321 168 321 156.5 331.5 c 128,-1,26
 145 342 145 342 137.5 352.5 c 128,-1,27
 130 363 130 363 130 373 c 0,28,29
 130 387 130 387 138.5 395.5 c 128,-1,30
 147 404 147 404 161 404 c 0,31,32
 174 404 174 404 187 394 c 2,33,-1
 316 282 l 2,0,1
EndSplineSet
EndChar

StartChar: sterling
Encoding: 163 163 94
Width: 335
GlyphClass: 2
Flags: W
LayerCount: 2
Fore
SplineSet
321 163 m 2,0,1
 321 127 321 127 312 95.5 c 128,-1,2
 303 64 303 64 284.5 40.5 c 128,-1,3
 266 17 266 17 236.5 3.5 c 128,-1,4
 207 -10 207 -10 167 -10 c 0,5,6
 129 -10 129 -10 101 3 c 128,-1,7
 73 16 73 16 54 39 c 128,-1,8
 35 62 35 62 25.5 92.5 c 128,-1,9
 16 123 16 123 15 159 c 2,10,-1
 15 353 l 2,11,12
 15 434 15 434 52.5 485 c 128,-1,13
 90 536 90 536 167 536 c 0,14,15
 208 536 208 536 236.5 522 c 128,-1,16
 265 508 265 508 283.5 484 c 128,-1,17
 302 460 302 460 310.5 427 c 128,-1,18
 319 394 319 394 321 356 c 2,19,-1
 321 163 l 2,0,1
253 341 m 2,20,21
 252 365 252 365 247 387.5 c 128,-1,22
 242 410 242 410 231.5 428 c 128,-1,23
 221 446 221 446 205 456.5 c 128,-1,24
 189 467 189 467 168 467 c 0,25,26
 145 467 145 467 129 456 c 128,-1,27
 113 445 113 445 103 427 c 128,-1,28
 93 409 93 409 88.5 386 c 128,-1,29
 84 363 84 363 84 338 c 2,30,-1
 84 178 l 2,31,32
 84 156 84 156 89 134.5 c 128,-1,33
 94 113 94 113 104.5 96 c 128,-1,34
 115 79 115 79 130.5 68.5 c 128,-1,35
 146 58 146 58 168 58 c 256,36,37
 190 58 190 58 206 69 c 128,-1,38
 222 80 222 80 232.5 97.5 c 128,-1,39
 243 115 243 115 248 137 c 128,-1,40
 253 159 253 159 253 181 c 2,41,-1
 253 341 l 2,20,21
EndSplineSet
EndChar

StartChar: currency
Encoding: 164 164 95
Width: 27
GlyphClass: 2
Flags: W
LayerCount: 2
Fore
SplineSet
-23 5 m 256,0,1
 -23 19 -23 19 -13.5 28.5 c 128,-1,2
 -4 38 -4 38 10 38 c 256,3,4
 24 38 24 38 33.5 28.5 c 128,-1,5
 43 19 43 19 43 5 c 256,6,7
 43 -9 43 -9 33.5 -18.5 c 128,-1,8
 24 -28 24 -28 10 -28 c 256,9,10
 -4 -28 -4 -28 -13.5 -18.5 c 128,-1,11
 -23 -9 -23 -9 -23 5 c 256,0,1
EndSplineSet
EndChar

StartChar: yen
Encoding: 165 165 96
Width: 27
GlyphClass: 2
Flags: W
LayerCount: 2
Fore
SplineSet
4 -52 m 1,0,-1
 -36 -52 l 1,1,-1
 -16 38 l 1,2,-1
 45 38 l 1,3,-1
 4 -52 l 1,0,-1
EndSplineSet
EndChar

StartChar: degree
Encoding: 176 176 97
Width: 335
GlyphClass: 2
Flags: W
LayerCount: 2
Fore
SplineSet
94 526 m 0,0,1
 126 526 126 526 149 499 c 128,-1,2
 172 472 172 472 172 433 c 256,3,4
 172 394 172 394 149 367 c 128,-1,5
 126 340 126 340 94 340 c 0,6,7
 61 340 61 340 38.5 367 c 128,-1,8
 16 394 16 394 16 433 c 256,9,10
 16 472 16 472 38.5 499 c 128,-1,11
 61 526 61 526 94 526 c 0,0,1
94 466 m 256,12,13
 86 466 86 466 79.5 456.5 c 128,-1,14
 73 447 73 447 73 433 c 256,15,16
 73 419 73 419 79.5 409.5 c 128,-1,17
 86 400 86 400 94 400 c 256,18,19
 102 400 102 400 108 409.5 c 128,-1,20
 114 419 114 419 114 433 c 256,21,22
 114 447 114 447 108 456.5 c 128,-1,23
 102 466 102 466 94 466 c 256,12,13
EndSplineSet
EndChar

StartChar: quotedblleft
Encoding: 8220 8220 100
Width: 335
GlyphClass: 2
Flags: W
LayerCount: 2
Fore
SplineSet
149 396 m 2,0,1
 163 407 163 407 175 407 c 0,2,3
 189 407 189 407 197.5 398 c 128,-1,4
 206 389 206 389 206 376 c 0,5,6
 206 366 206 366 198 355.5 c 128,-1,7
 190 345 190 345 179 334.5 c 128,-1,8
 168 324 168 324 155.5 314 c 128,-1,9
 143 304 143 304 133 296 c 1,10,-1
 295 296 l 1,11,12
 309 291 309 291 316.5 282 c 128,-1,13
 324 273 324 273 324 263 c 0,14,15
 324 252 324 252 316 242.5 c 128,-1,16
 308 233 308 233 292 230 c 2,17,-1
 133 230 l 1,18,19
 143 221 143 221 155.5 211 c 128,-1,20
 168 201 168 201 179 190.5 c 128,-1,21
 190 180 190 180 198 169 c 128,-1,22
 206 158 206 158 206 148 c 0,23,24
 206 135 206 135 197.5 126.5 c 128,-1,25
 189 118 189 118 175 118 c 0,26,27
 164 118 164 118 155 123 c 0,28,29
 123 152 123 152 90.5 180 c 128,-1,30
 58 208 58 208 26 236 c 0,31,32
 13 249 13 249 13 263 c 0,33,34
 13 274 13 274 20 284 c 2,35,-1
 149 396 l 2,0,1
EndSplineSet
EndChar

StartChar: quotedblright
Encoding: 8221 8221 101
Width: 335
GlyphClass: 2
Flags: W
LayerCount: 2
Fore
SplineSet
316 282 m 2,0,1
 323 271 323 271 323 260 c 0,2,3
 323 246 323 246 310 233 c 2,4,-1
 181 121 l 2,5,6
 172 116 172 116 161 116 c 0,7,8
 147 116 147 116 138.5 124 c 128,-1,9
 130 132 130 132 130 146 c 0,10,11
 130 156 130 156 137.5 166.5 c 128,-1,12
 145 177 145 177 156.5 187.5 c 128,-1,13
 168 198 168 198 180.5 208 c 128,-1,14
 193 218 193 218 203 227 c 1,15,-1
 44 227 l 1,16,17
 28 231 28 231 20 240 c 128,-1,18
 12 249 12 249 12 260 c 256,19,20
 12 271 12 271 19.5 279.5 c 128,-1,21
 27 288 27 288 41 293 c 1,22,-1
 203 293 l 1,23,24
 193 302 193 302 180.5 311.5 c 128,-1,25
 168 321 168 321 156.5 331.5 c 128,-1,26
 145 342 145 342 137.5 352.5 c 128,-1,27
 130 363 130 363 130 373 c 0,28,29
 130 387 130 387 138.5 395.5 c 128,-1,30
 147 404 147 404 161 404 c 0,31,32
 174 404 174 404 187 394 c 2,33,-1
 316 282 l 2,0,1
EndSplineSet
EndChar
